Tilt-Prism-Model.ufo
<glyph name="quotedbl" format="2">
  <advance width="518"/>
  <unicode hex="0022"/>
  <outline>
    <contour>
      <point x="98.0" y="398.0" type="line"/>
      <point x="64.0" y="680.0" type="line"/>
      <point x="233.0" y="680.0" type="line"/>
      <point x="199.0" y="398.0" type="line"/>
    </contour>
    <contour>
      <point x="319.0" y="398.0" type="line"/>
      <point x="285.0" y="680.0" type="line"/>
      <point x="454.0" y="680.0" type="line"/>
      <point x="420.0" y="398.0" type="line"/>
    </contour>
  </outline>
</glyph>
<glyph name="numbersign" format="2">
  <advance width="680"/>
  <unicode hex="0023"/>
  <outline>
    <contour>
      <point x="261" y="0" type="line"/>
      <point x="315" y="680" type="line"/>
      <point x="190" y="680" type="line"/>
      <point x="136" y="0" type="line"/>
    </contour>
    <contour>
      <point x="490" y="0" type="line"/>
      <point x="544" y="680" type="line"/>
      <point x="419" y="680" type="line"/>
      <point x="365" y="0" type="line"/>
    </contour>
    <contour>
      <point x="55" y="156" type="line"/>
      <point x="625" y="156" type="line"/>
      <point x="625" y="281" type="line"/>
      <point x="55" y="281" type="line"/>
    </contour>
    <contour>
      <point x="625" y="524" type="line"/>
      <point x="55" y="524" type="line"/>
      <point x="55" y="399" type="line"/>
      <point x="625" y="399" type="line"/>
    </contour>
  </outline>
</glyph>
<glyph name="percent" format="2">
  <advance width="1023"/>
  <unicode hex="0025"/>
  <outline>
    <contour>
      <point x="239.0" y="0.0" type="line"/>
      <point x="367.0" y="0.0" type="line"/>
      <point x="783" y="680" type="line"/>
      <point x="655" y="680" type="line"/>
    </contour>
    <contour>
      <point x="784" y="94" type="curve" smooth="yes"/>
      <point x="828.0" y="94.0"/>
      <point x="855.0" y="136.9885057471264"/>
      <point x="855" y="204.0" type="curve" smooth="yes"/>
      <point x="855.0" y="271.1744186046511"/>
      <point x="828.0" y="313.0"/>
      <point x="784" y="313" type="curve" smooth="yes"/>
      <point x="740.0" y="313.0"/>
      <point x="715.0" y="271.1744186046511"/>
      <point x="715" y="204.0" type="curve" smooth="yes"/>
      <point x="715.0" y="136.9885057471264"/>
      <point x="740.0" y="94.0"/>
    </contour>
    <contour>
      <point x="784.0" y="-14.0" type="curve" smooth="yes"/>
      <point x="668.9313725490197" y="-14.0"/>
      <point x="590.0" y="80.0"/>
      <point x="590.0" y="204" type="curve" smooth="yes"/>
      <point x="590.0" y="327.0"/>
      <point x="668.9313725490197" y="420.0"/>
      <point x="784.0" y="420.0" type="curve" smooth="yes"/>
      <point x="899.0686274509803" y="420.0"/>
      <point x="978.0" y="327.0"/>
      <point x="978.0" y="204" type="curve" smooth="yes"/>
      <point x="978.0" y="80.0"/>
      <point x="899.0686274509803" y="-14.0"/>
    </contour>
    <contour>
      <point x="239.0" y="368.0" type="curve" smooth="yes"/>
      <point x="283.0" y="368.0"/>
      <point x="310.0" y="411.1775700934579"/>
      <point x="310.0" y="478.0" type="curve" smooth="yes"/>
      <point x="310.0" y="544.8396226415094"/>
      <point x="283.0" y="587.0"/>
      <point x="239.0" y="587.0" type="curve" smooth="yes"/>
      <point x="195.0" y="587.0"/>
      <point x="170.0" y="544.8396226415094"/>
      <point x="170.0" y="478.0" type="curve" smooth="yes"/>
      <point x="170.0" y="411.1775700934579"/>
      <point x="195.0" y="368.0"/>
    </contour>
    <contour>
      <point x="239.0" y="260.0" type="curve" smooth="yes"/>
      <point x="124" y="260.0"/>
      <point x="45.0" y="354.0"/>
      <point x="45.0" y="478.0" type="curve" smooth="yes"/>
      <point x="45.0" y="601.0"/>
      <point x="124" y="694.0"/>
      <point x="239.0" y="694.0" type="curve" smooth="yes"/>
      <point x="354" y="694.0"/>
      <point x="433.0" y="601.0"/>
      <point x="433.0" y="478.0" type="curve" smooth="yes"/>
      <point x="433.0" y="354.0"/>
      <point x="354" y="260.0"/>
    </contour>
  </outline>
</glyph>
<glyph name="quotesingle" format="2">
  <advance width="297"/>
  <unicode hex="0027"/>
  <outline>
    <contour>
      <point x="98.0" y="398.0" type="line"/>
      <point x="64.0" y="680.0" type="line"/>
      <point x="233.0" y="680.0" type="line"/>
      <point x="199.0" y="398.0" type="line"/>
    </contour>
  </outline>
</glyph>
<glyph name="asterisk" format="2">
  <advance width="614"/>
  <unicode hex="002A"/>
  <outline>
    <contour>
      <point x="541" y="388" type="line"/>
      <point x="541" y="520" type="line"/>
      <point x="295" y="510" type="line"/>
      <point x="49" y="520" type="line"/>
      <point x="49" y="388" type="line"/>
      <point x="295" y="398" type="line"/>
    </contour>
    <contour>
      <point x="474" y="634" type="line"/>
      <point x="360" y="700" type="line"/>
      <point x="246" y="482.0" type="line"/>
      <point x="114" y="274" type="line"/>
      <point x="228" y="208" type="line"/>
      <point x="342" y="426.0" type="line"/>
    </contour>
    <contour>
      <point x="116" y="634" type="line"/>
      <point x="248.0" y="426.0" type="line"/>
      <point x="362" y="208" type="line"/>
      <point x="476" y="274" type="line"/>
      <point x="344.0" y="482.0" type="line"/>
      <point x="230" y="700" type="line"/>
    </contour>
  </outline>
</glyph>
<glyph name="plus" format="2">
  <advance width="540"/>
  <unicode hex="002B"/>
  <outline>
    <contour>
      <point x="40" y="247" type="line"/>
      <point x="500" y="247" type="line"/>
      <point x="500" y="374" type="line"/>
      <point x="40" y="374" type="line"/>
    </contour>
    <contour>
      <point x="334.0" y="74.0" type="line"/>
      <point x="334.0" y="544.0" type="line"/>
      <point x="203.0" y="544.0" type="line"/>
      <point x="203.0" y="74.0" type="line"/>
    </contour>
  </outline>
</glyph>
<glyph name="comma" format="2">
  <advance width="274"/>
  <unicode hex="002C"/>
  <outline>
    <contour>
      <point x="60" y="160" type="curve"/>
      <point x="227" y="160" type="line"/>
      <point x="237" y="49"/>
      <point x="187" y="-81"/>
      <point x="25" y="-131" type="curve"/>
      <point x="83" y="-12"/>
      <point x="84" y="71"/>
    </contour>
  </outline>
</glyph>
<glyph name="hyphen" format="2">
  <advance width="340"/>
  <unicode hex="002D"/>
  <outline>
    <contour>
      <point x="35" y="226" type="line"/>
      <point x="305" y="286" type="line"/>
      <point x="305" y="411" type="line"/>
      <point x="35" y="351" type="line"/>
    </contour>
  </outline>
</glyph>
<glyph name="period" format="2">
  <advance width="271"/>
  <unicode hex="002E"/>
  <outline>
    <contour>
      <point x="55" y="0" type="line"/>
      <point x="216" y="0" type="line"/>
      <point x="216" y="161" type="line"/>
      <point x="55" y="161" type="line"/>
    </contour>
  </outline>
</glyph>
<glyph name="four" format="2">
  <advance width="579"/>
  <unicode hex="0034"/>
  <outline>
    <contour>
      <point x="292" y="0" type="curve"/>
      <point x="486" y="0" type="line"/>
      <point x="466" y="40"/>
      <point x="459" y="95"/>
      <point x="459" y="349" type="curve" smooth="yes"/>
      <point x="459" y="589"/>
      <point x="466" y="641"/>
      <point x="486" y="680" type="curve"/>
      <point x="292" y="680" type="line"/>
      <point x="312" y="641"/>
      <point x="319" y="589"/>
      <point x="319" y="349" type="curve" smooth="yes"/>
      <point x="319" y="95"/>
      <point x="312" y="40"/>
    </contour>
    <contour>
      <point x="353" y="155" type="line" smooth="yes"/>
      <point x="494" y="155"/>
      <point x="520" y="151"/>
      <point x="554" y="134" type="curve"/>
      <point x="554" y="291" type="line"/>
      <point x="520" y="273"/>
      <point x="494" y="269"/>
      <point x="353" y="269" type="curve" smooth="yes"/>
      <point x="195" y="269" type="line"/>
      <point x="404" y="680" type="line"/>
      <point x="273" y="680" type="line"/>
      <point x="-5" y="155" type="line"/>
    </contour>
  </outline>
</glyph>
<glyph name="colon" format="2">
  <advance width="271"/>
  <unicode hex="003A"/>
  <outline>
    <contour>
      <point x="55" y="0" type="line"/>
      <point x="216" y="0" type="line"/>
      <point x="216" y="161" type="line"/>
      <point x="55" y="161" type="line"/>
    </contour>
    <contour>
      <point x="55.0" y="362.0" type="line"/>
      <point x="216.0" y="362.0" type="line"/>
      <point x="216.0" y="523.0" type="line"/>
      <point x="55.0" y="523.0" type="line"/>
    </contour>
  </outline>
</glyph>
<glyph name="less" format="2">
  <advance width="457"/>
  <unicode hex="003C"/>
  <outline>
    <contour>
      <point x="10" y="308" type="line"/>
      <point x="407" y="553" type="line"/>
      <point x="407" y="398" type="line"/>
      <point x="171" y="269" type="line"/>
      <point x="171" y="352" type="line"/>
      <point x="407" y="221" type="line"/>
      <point x="407" y="63" type="line"/>
    </contour>
  </outline>
</glyph>
<glyph name="greater" format="2">
  <advance width="447"/>
  <unicode hex="003E"/>
  <outline>
    <contour>
      <point x="437" y="309" type="line"/>
      <point x="40" y="64" type="line"/>
      <point x="40" y="219" type="line"/>
      <point x="276" y="348" type="line"/>
      <point x="276" y="265" type="line"/>
      <point x="40" y="396" type="line"/>
      <point x="40" y="554" type="line"/>
    </contour>
  </outline>
</glyph>
<glyph name="D" format="2">
  <advance width="691"/>
  <unicode hex="0044"/>
  <anchor x="304" y="1" name="below"/>
  <anchor x="314" y="680.0" name="above"/>
  <outline>
    <contour>
      <point x="57" y="0" type="curve"/>
      <point x="254" y="0" type="line"/>
      <point x="234" y="40"/>
      <point x="227" y="95"/>
      <point x="227" y="349" type="curve" smooth="yes"/>
      <point x="227" y="589"/>
      <point x="234" y="641"/>
      <point x="254" y="680" type="curve"/>
      <point x="57" y="680" type="line"/>
      <point x="77" y="641"/>
      <point x="84" y="589"/>
      <point x="84" y="349" type="curve" smooth="yes"/>
      <point x="84" y="95"/>
      <point x="77" y="40"/>
    </contour>
    <contour>
      <point x="301" y="555" type="line" smooth="yes"/>
      <point x="425.0" y="555.0"/>
      <point x="502" y="471"/>
      <point x="502" y="341" type="curve" smooth="yes"/>
      <point x="502" y="210"/>
      <point x="425.0" y="125.0"/>
      <point x="301" y="125" type="curve" smooth="yes"/>
      <point x="155" y="125" type="line"/>
      <point x="155" y="0" type="line"/>
      <point x="311" y="0" type="line" smooth="yes"/>
      <point x="509.0" y="0.0"/>
      <point x="654" y="134"/>
      <point x="654" y="341" type="curve" smooth="yes"/>
      <point x="654" y="547"/>
      <point x="509.0" y="680.0"/>
      <point x="311" y="680" type="curve" smooth="yes"/>
      <point x="155" y="680" type="line"/>
      <point x="155" y="555" type="line"/>
    </contour>
  </outline>
</glyph>
<glyph name="E" format="2">
  <advance width="549"/>
  <unicode hex="0045"/>
  <anchor x="494" y="0" name="ogonek"/>
  <anchor x="276" y="0" name="below"/>
  <anchor x="276" y="680.0" name="above"/>
  <outline>
    <contour>
      <point x="57" y="0" type="curve"/>
      <point x="254" y="0" type="line"/>
      <point x="234" y="40"/>
      <point x="227" y="95"/>
      <point x="227" y="349" type="curve" smooth="yes"/>
      <point x="227" y="589"/>
      <point x="234" y="641"/>
      <point x="254" y="680" type="curve"/>
      <point x="57" y="680" type="line"/>
      <point x="77" y="641"/>
      <point x="84" y="589"/>
      <point x="84" y="349" type="curve" smooth="yes"/>
      <point x="84" y="95"/>
      <point x="77" y="40"/>
    </contour>
    <contour>
      <point x="190" y="126" type="curve"/>
      <point x="166" y="0" type="line"/>
      <point x="474" y="0" type="line"/>
      <point x="494" y="166" type="line"/>
      <point x="455" y="135"/>
      <point x="402" y="120"/>
    </contour>
    <contour>
      <point x="190" y="554" type="line"/>
      <point x="397" y="560"/>
      <point x="441" y="542"/>
      <point x="476" y="524" type="curve"/>
      <point x="476" y="680" type="line"/>
      <point x="166" y="680" type="line"/>
    </contour>
    <contour>
      <point x="158" y="290" type="line"/>
      <point x="379" y="290"/>
      <point x="415" y="286"/>
      <point x="449" y="269" type="curve"/>
      <point x="449" y="432" type="line"/>
      <point x="415" y="414"/>
      <point x="379" y="410"/>
      <point x="158" y="410" type="curve"/>
    </contour>
  </outline>
</glyph>
<glyph name="G" format="2">
  <advance width="670"/>
  <unicode hex="0047"/>
  <anchor x="363" y="-2" name="below"/>
  <anchor x="373" y="681.0" name="above"/>
  <outline>
    <contour>
      <point x="608" y="40" type="curve"/>
      <point x="528" y="6"/>
      <point x="454" y="-15"/>
      <point x="375" y="-15" type="curve" smooth="yes"/>
      <point x="168" y="-15"/>
      <point x="37" y="136"/>
      <point x="37" y="334" type="curve" smooth="yes"/>
      <point x="37" y="543"/>
      <point x="176" y="692"/>
      <point x="388" y="692" type="curve" smooth="yes"/>
      <point x="455" y="692"/>
      <point x="524" y="677"/>
      <point x="592" y="652" type="curve"/>
      <point x="592" y="484" type="line"/>
      <point x="530" y="539"/>
      <point x="456" y="565"/>
      <point x="385" y="565" type="curve" smooth="yes"/>
      <point x="263" y="565"/>
      <point x="189" y="479"/>
      <point x="189" y="341" type="curve" smooth="yes"/>
      <point x="189" y="203"/>
      <point x="263" y="114"/>
      <point x="385" y="114" type="curve" smooth="yes"/>
      <point x="456" y="114"/>
      <point x="530" y="140"/>
      <point x="592" y="195" type="curve"/>
      <point x="472" y="64" type="line"/>
      <point x="468" y="271"/>
      <point x="460" y="315"/>
      <point x="442" y="350" type="curve"/>
      <point x="620" y="350" type="line"/>
      <point x="612" y="314"/>
      <point x="607" y="265"/>
    </contour>
  </outline>
</glyph>
<glyph name="H" format="2">
  <advance width="703"/>
  <unicode hex="0048"/>
  <anchor x="351" y="0" name="below"/>
  <anchor x="351" y="680.0" name="above"/>
  <outline>
    <contour>
      <point x="148" y="291" type="line"/>
      <point x="515" y="291" type="line"/>
      <point x="515" y="418" type="line"/>
      <point x="148" y="418" type="line"/>
    </contour>
    <contour>
      <point x="57" y="0" type="curve"/>
      <point x="254" y="0" type="line"/>
      <point x="234" y="40"/>
      <point x="227" y="95"/>
      <point x="227" y="349" type="curve" smooth="yes"/>
      <point x="227" y="589"/>
      <point x="234" y="641"/>
      <point x="254" y="680" type="curve"/>
      <point x="57" y="680" type="line"/>
      <point x="77" y="641"/>
      <point x="84" y="589"/>
      <point x="84" y="349" type="curve" smooth="yes"/>
      <point x="84" y="95"/>
      <point x="77" y="40"/>
    </contour>
    <contour>
      <point x="449" y="0" type="curve"/>
      <point x="646" y="0" type="line"/>
      <point x="626" y="40"/>
      <point x="619" y="95"/>
      <point x="619" y="349" type="curve" smooth="yes"/>
      <point x="619" y="589"/>
      <point x="626" y="641"/>
      <point x="646" y="680" type="curve"/>
      <point x="449" y="680" type="line"/>
      <point x="469" y="641"/>
      <point x="476" y="589"/>
      <point x="476" y="349" type="curve" smooth="yes"/>
      <point x="476" y="95"/>
      <point x="469" y="40"/>
    </contour>
  </outline>
</glyph>
<glyph name="I" format="2">
  <advance width="319"/>
  <unicode hex="0049"/>
  <anchor x="160" y="0" name="below"/>
  <anchor x="160" y="680.0" name="above"/>
  <outline>
    <contour>
      <point x="61" y="0" type="curve"/>
      <point x="258" y="0" type="line"/>
      <point x="238" y="40"/>
      <point x="231" y="95"/>
      <point x="231" y="349" type="curve" smooth="yes"/>
      <point x="231" y="589"/>
      <point x="238" y="641"/>
      <point x="258" y="680" type="curve"/>
      <point x="61" y="680" type="line"/>
      <point x="81" y="641"/>
      <point x="88" y="589"/>
      <point x="88" y="349" type="curve" smooth="yes"/>
      <point x="88" y="95"/>
      <point x="81" y="40"/>
    </contour>
  </outline>
</glyph>
<glyph name="L" format="2">
  <advance width="504"/>
  <unicode hex="004C"/>
  <anchor x="258" y="0" name="below"/>
  <anchor x="189" y="680.0" name="above"/>
  <anchor x="273" y="517" name="right"/>
  <outline>
    <contour>
      <point x="57" y="0" type="curve"/>
      <point x="254" y="0" type="line"/>
      <point x="234" y="40"/>
      <point x="227" y="95"/>
      <point x="227" y="349" type="curve" smooth="yes"/>
      <point x="227" y="589"/>
      <point x="234" y="641"/>
      <point x="254" y="680" type="curve"/>
      <point x="57" y="680" type="line"/>
      <point x="77" y="641"/>
      <point x="84" y="589"/>
      <point x="84" y="349" type="curve" smooth="yes"/>
      <point x="84" y="95"/>
      <point x="77" y="40"/>
    </contour>
    <contour>
      <point x="170" y="133" type="curve"/>
      <point x="146" y="0" type="line"/>
      <point x="459" y="0" type="line"/>
      <point x="479" y="171" type="line"/>
      <point x="440" y="140"/>
      <point x="382" y="127"/>
    </contour>
  </outline>
</glyph>
<glyph name="P" format="2">
  <advance width="593"/>
  <unicode hex="0050"/>
  <outline>
    <contour>
      <point x="57" y="0" type="curve"/>
      <point x="254" y="0" type="line"/>
      <point x="234" y="40"/>
      <point x="227" y="95"/>
      <point x="227" y="349" type="curve" smooth="yes"/>
      <point x="227" y="589"/>
      <point x="234" y="641"/>
      <point x="254" y="680" type="curve"/>
      <point x="57" y="680" type="line"/>
      <point x="77" y="641"/>
      <point x="84" y="589"/>
      <point x="84" y="349" type="curve" smooth="yes"/>
      <point x="84" y="95"/>
      <point x="77" y="40"/>
    </contour>
    <contour>
      <point x="421.0" y="454.0" type="curve" smooth="yes"/>
      <point x="421.0" y="394.0"/>
      <point x="383.0" y="355.0"/>
      <point x="318.0" y="355.0" type="curve" smooth="yes"/>
      <point x="193.0" y="355.0" type="line"/>
      <point x="193.0" y="230.0" type="line"/>
      <point x="316.0" y="230.0" type="line" smooth="yes"/>
      <point x="472.0" y="230.0"/>
      <point x="568.0" y="321.0"/>
      <point x="568" y="456" type="curve" smooth="yes"/>
      <point x="568.0" y="591"/>
      <point x="472.0" y="680"/>
      <point x="316" y="680" type="curve" smooth="yes"/>
      <point x="193" y="680" type="line"/>
      <point x="193" y="555" type="line"/>
      <point x="318" y="555" type="line" smooth="yes"/>
      <point x="383" y="555"/>
      <point x="421.0" y="514.0"/>
    </contour>
  </outline>
</glyph>
<glyph name="S" format="2">
  <advance width="533"/>
  <unicode hex="0053"/>
  <anchor x="265" y="-2" name="below"/>
  <anchor x="275" y="682.0" name="above"/>
  <outline>
    <contour>
      <point x="354" y="184" type="curve" smooth="yes"/>
      <point x="354" y="144"/>
      <point x="322" y="113"/>
      <point x="254" y="113" type="curve" smooth="yes"/>
      <point x="189" y="113"/>
      <point x="111" y="135"/>
      <point x="52" y="181" type="curve"/>
      <point x="52" y="15" type="line"/>
      <point x="119" y="-3"/>
      <point x="182" y="-13"/>
      <point x="242" y="-13" type="curve" smooth="yes"/>
      <point x="394" y="-14"/>
      <point x="503" y="60"/>
      <point x="503" y="200" type="curve" smooth="yes"/>
      <point x="503" y="399"/>
      <point x="199" y="389"/>
      <point x="199" y="498" type="curve" smooth="yes"/>
      <point x="199" y="536"/>
      <point x="228" y="566"/>
      <point x="290" y="566" type="curve" smooth="yes"/>
      <point x="349" y="566"/>
      <point x="420" y="544"/>
      <point x="474" y="500" type="curve"/>
      <point x="474" y="664" type="line"/>
      <point x="413" y="681"/>
      <point x="357" y="690"/>
      <point x="303" y="690" type="curve" smooth="yes"/>
      <point x="150" y="690"/>
      <point x="48" y="614"/>
      <point x="48" y="482" type="curve" smooth="yes"/>
      <point x="48" y="278"/>
      <point x="354" y="292"/>
    </contour>
  </outline>
</glyph>
<glyph name="T" format="2">
  <advance width="549"/>
  <unicode hex="0054"/>
  <anchor x="274" y="0" name="below"/>
  <anchor x="274" y="680.0" name="above"/>
  <outline>
    <contour>
      <point x="176" y="0" type="curve"/>
      <point x="373" y="0" type="line"/>
      <point x="353" y="40"/>
      <point x="346" y="95"/>
      <point x="346" y="349" type="curve" smooth="yes"/>
      <point x="346" y="589"/>
      <point x="353" y="641"/>
      <point x="373" y="680" type="curve"/>
      <point x="176" y="680" type="line"/>
      <point x="196" y="641"/>
      <point x="203" y="589"/>
      <point x="203" y="349" type="curve" smooth="yes"/>
      <point x="203" y="95"/>
      <point x="196" y="40"/>
    </contour>
    <contour>
      <point x="274" y="554" type="curve" smooth="yes"/>
      <point x="438" y="554"/>
      <point x="489" y="542"/>
      <point x="524" y="524" type="curve"/>
      <point x="524" y="680" type="line"/>
      <point x="25" y="680" type="line"/>
      <point x="25" y="524" type="line"/>
      <point x="60" y="542"/>
      <point x="110" y="554"/>
    </contour>
  </outline>
</glyph>
<glyph name="U" format="2">
  <advance width="684"/>
  <unicode hex="0055"/>
  <anchor x="454" y="680" name="horn"/>
  <anchor x="341" y="-5" name="below"/>
  <anchor x="341" y="680.0" name="above"/>
  <outline>
    <contour>
      <point x="342" y="-16" type="curve" smooth="yes"/>
      <point x="499" y="-16"/>
      <point x="610.0" y="74.0"/>
      <point x="610" y="223" type="curve" smooth="yes"/>
      <point x="610" y="349" type="line" smooth="yes"/>
      <point x="610" y="589"/>
      <point x="617" y="641"/>
      <point x="637" y="680" type="curve"/>
      <point x="440" y="680" type="line"/>
      <point x="460" y="641"/>
      <point x="467" y="589"/>
      <point x="467" y="349" type="curve" smooth="yes"/>
      <point x="467" y="244" type="line" smooth="yes"/>
      <point x="467" y="165.203007518797"/>
      <point x="419.0" y="113.0"/>
      <point x="342" y="113" type="curve" smooth="yes"/>
      <point x="265.0" y="113.0"/>
      <point x="217" y="165.203007518797"/>
      <point x="217" y="244" type="curve" smooth="yes"/>
      <point x="217" y="349" type="line" smooth="yes"/>
      <point x="217" y="589"/>
      <point x="224" y="641"/>
      <point x="244" y="680" type="curve"/>
      <point x="47" y="680" type="line"/>
      <point x="67" y="641"/>
      <point x="74" y="589"/>
      <point x="74" y="349" type="curve" smooth="yes"/>
      <point x="74" y="223" type="line" smooth="yes"/>
      <point x="74" y="74.0"/>
      <point x="185" y="-16"/>
    </contour>
  </outline>
</glyph>
<glyph name="W" format="2">
  <advance width="914"/>
  <unicode hex="0057"/>
  <anchor x="458" y="0" name="below"/>
  <anchor x="458" y="680.0" name="above"/>
  <outline>
    <contour>
      <point x="273" y="331" type="line" smooth="yes"/>
      <point x="203" y="586"/>
      <point x="199" y="631"/>
      <point x="224" y="680" type="curve"/>
      <point x="5" y="680" type="line"/>
      <point x="31" y="640"/>
      <point x="50" y="585"/>
      <point x="124" y="331" type="curve" smooth="yes"/>
      <point x="193" y="92"/>
      <point x="205" y="39"/>
      <point x="208" y="0" type="curve"/>
      <point x="364" y="0" type="line"/>
    </contour>
    <contour>
      <point x="653" y="331" type="curve" smooth="yes"/>
      <point x="562" y="0" type="line"/>
      <point x="706" y="0" type="line"/>
      <point x="704" y="39"/>
      <point x="721" y="92"/>
      <point x="790" y="331" type="curve" smooth="yes"/>
      <point x="864" y="585"/>
      <point x="883" y="640"/>
      <point x="909" y="680" type="curve"/>
      <point x="702" y="680" type="line"/>
      <point x="727" y="631"/>
      <point x="723" y="585"/>
    </contour>
    <contour>
      <point x="393" y="680" type="line"/>
      <point x="398" y="631"/>
      <point x="394" y="585"/>
      <point x="324" y="331" type="curve" smooth="yes"/>
      <point x="233" y="0" type="line"/>
      <point x="365" y="0" type="line"/>
      <point x="363" y="39"/>
      <point x="380" y="92"/>
      <point x="449" y="331" type="curve" smooth="yes"/>
      <point x="486" y="459"/>
      <point x="509" y="536"/>
      <point x="527" y="587" type="curve"/>
      <point x="404" y="542" type="line"/>
      <point x="419" y="493"/>
      <point x="439" y="426"/>
      <point x="467" y="331" type="curve" smooth="yes"/>
      <point x="536" y="92"/>
      <point x="548" y="39"/>
      <point x="551" y="0" type="curve"/>
      <point x="697" y="0" type="line"/>
      <point x="606" y="331" type="line" smooth="yes"/>
      <point x="536" y="586"/>
      <point x="532" y="631"/>
      <point x="537" y="680" type="curve"/>
    </contour>
  </outline>
</glyph>
<glyph name="Z" format="2">
  <advance width="588"/>
  <unicode hex="005A"/>
  <anchor x="293" y="0" name="below"/>
  <anchor x="293" y="680.0" name="above"/>
  <outline>
    <contour>
      <point x="236" y="126" type="curve"/>
      <point x="130" y="126" type="line"/>
      <point x="127" y="0" type="line"/>
      <point x="212" y="0" type="line"/>
      <point x="520" y="0" type="line"/>
      <point x="540" y="166" type="line"/>
      <point x="501" y="135"/>
      <point x="448" y="120"/>
    </contour>
    <contour>
      <point x="343" y="554" type="curve"/>
      <point x="458" y="554" type="line"/>
      <point x="425" y="680" type="line"/>
      <point x="367" y="680" type="line"/>
      <point x="57" y="680" type="line"/>
      <point x="57" y="524" type="line"/>
      <point x="92" y="542"/>
      <point x="136" y="560"/>
    </contour>
    <contour>
      <point x="558" y="680" type="line"/>
      <point x="397" y="680" type="line"/>
      <point x="30" y="0" type="line"/>
      <point x="191" y="0" type="line"/>
    </contour>
  </outline>
</glyph>
<glyph name="backslash" format="2">
  <advance width="469"/>
  <unicode hex="005C"/>
  <outline>
    <contour>
      <point x="455" y="-75" type="line"/>
      <point x="155" y="750" type="line"/>
      <point x="14" y="750" type="line"/>
      <point x="314" y="-75" type="line"/>
    </contour>
  </outline>
</glyph>
<glyph name="a" format="2">
  <advance width="622"/>
  <unicode hex="0061"/>
  <outline>
    <contour>
      <point x="125" y="116" type="line"/>
      <point x="488" y="116" type="line"/>
      <point x="488" y="241" type="line"/>
      <point x="125" y="241" type="line"/>
    </contour>
    <contour>
      <point x="264" y="299" type="curve" smooth="yes"/>
      <point x="375" y="580" type="line"/>
      <point x="233" y="580" type="line"/>
      <point x="231" y="547"/>
      <point x="208" y="508"/>
      <point x="130" y="299" type="curve" smooth="yes"/>
      <point x="47" y="79"/>
      <point x="17" y="35"/>
      <point x="-10" y="0" type="curve"/>
      <point x="195" y="0" type="line"/>
      <point x="180" y="41"/>
      <point x="179" y="83"/>
    </contour>
    <contour>
      <point x="344" y="299" type="line" smooth="yes"/>
      <point x="429" y="83"/>
      <point x="428" y="41"/>
      <point x="413" y="0" type="curve"/>
      <point x="632" y="0" type="line"/>
      <point x="605" y="35"/>
      <point x="575" y="79"/>
      <point x="492" y="299" type="curve" smooth="yes"/>
      <point x="414" y="508"/>
      <point x="395" y="547"/>
      <point x="389" y="580" type="curve"/>
      <point x="375" y="580" type="line"/>
      <point x="233" y="580" type="line"/>
    </contour>
  </outline>
</glyph>
<glyph name="b" format="2">
  <advance width="534"/>
  <unicode hex="0062"/>
  <outline>
    <contour>
      <point x="50" y="0" type="curve"/>
      <point x="247" y="0" type="line"/>
      <point x="229" y="35"/>
      <point x="220" y="81"/>
      <point x="220" y="299" type="curve" smooth="yes"/>
      <point x="220" y="503"/>
      <point x="229" y="545"/>
      <point x="247" y="580" type="curve"/>
      <point x="50" y="580" type="line"/>
      <point x="68" y="545"/>
      <point x="77" y="503"/>
      <point x="77" y="299" type="curve" smooth="yes"/>
      <point x="77" y="81"/>
      <point x="68" y="35"/>
    </contour>
    <contour>
      <point x="186" y="267" type="line"/>
      <point x="283" y="267" type="line" smooth="yes"/>
      <point x="400.0" y="267.0"/>
      <point x="484" y="325"/>
      <point x="484" y="419" type="curve" smooth="yes"/>
      <point x="484" y="515"/>
      <point x="403.0" y="580.0"/>
      <point x="272" y="580" type="curve" smooth="yes"/>
      <point x="186" y="580" type="line"/>
      <point x="186" y="460" type="line"/>
      <point x="276" y="460" type="line" smooth="yes"/>
      <point x="312.0" y="460.0"/>
      <point x="334.0" y="440.0"/>
      <point x="334" y="406" type="curve" smooth="yes"/>
      <point x="334.0" y="374.0"/>
      <point x="309.0" y="354.0"/>
      <point x="276" y="354" type="curve" smooth="yes"/>
      <point x="186" y="354" type="line"/>
    </contour>
    <contour>
      <point x="206" y="0" type="line"/>
      <point x="296" y="0" type="line" smooth="yes"/>
      <point x="419.0" y="0.0"/>
      <point x="504" y="70"/>
      <point x="504" y="172" type="curve" smooth="yes"/>
      <point x="504" y="272"/>
      <point x="417.0" y="333.0"/>
      <point x="279" y="333" type="curve" smooth="yes"/>
      <point x="206" y="333" type="line"/>
      <point x="206" y="241" type="line"/>
      <point x="286" y="241" type="line" smooth="yes"/>
      <point x="328.0" y="241.0"/>
      <point x="354.0" y="219.0"/>
      <point x="354" y="181" type="curve" smooth="yes"/>
      <point x="354.0" y="142.0"/>
      <point x="325.0" y="120.0"/>
      <point x="286" y="120" type="curve" smooth="yes"/>
      <point x="206" y="120" type="line"/>
    </contour>
  </outline>
</glyph>
<glyph name="c" format="2">
  <advance width="539"/>
  <unicode hex="0063"/>
  <outline>
    <contour>
      <point x="178" y="290" type="curve" smooth="yes"/>
      <point x="178" y="398"/>
      <point x="238" y="464"/>
      <point x="324" y="464" type="curve" smooth="yes"/>
      <point x="385" y="464"/>
      <point x="443" y="429"/>
      <point x="489" y="390" type="curve"/>
      <point x="489" y="558" type="line"/>
      <point x="443" y="578"/>
      <point x="388" y="592"/>
      <point x="325" y="592" type="curve" smooth="yes"/>
      <point x="143" y="592"/>
      <point x="26" y="467"/>
      <point x="26" y="288" type="curve" smooth="yes"/>
      <point x="26" y="110"/>
      <point x="143" y="-12"/>
      <point x="325" y="-12" type="curve" smooth="yes"/>
      <point x="388" y="-12"/>
      <point x="443" y="2"/>
      <point x="489" y="22" type="curve"/>
      <point x="489" y="190" type="line"/>
      <point x="441" y="148"/>
      <point x="386" y="117"/>
      <point x="325" y="117" type="curve" smooth="yes"/>
      <point x="239" y="117"/>
      <point x="178" y="182"/>
    </contour>
  </outline>
</glyph>
<glyph name="d" format="2">
  <advance width="623"/>
  <unicode hex="0064"/>
  <outline>
    <contour>
      <point x="50" y="0" type="curve"/>
      <point x="247" y="0" type="line"/>
      <point x="229" y="35"/>
      <point x="220" y="81"/>
      <point x="220" y="299" type="curve" smooth="yes"/>
      <point x="220" y="502"/>
      <point x="229" y="545"/>
      <point x="247" y="580" type="curve"/>
      <point x="50" y="580" type="line"/>
      <point x="68" y="545"/>
      <point x="77" y="502"/>
      <point x="77" y="299" type="curve" smooth="yes"/>
      <point x="77" y="81"/>
      <point x="68" y="35"/>
    </contour>
    <contour>
      <point x="284" y="455" type="line" smooth="yes"/>
      <point x="383" y="455"/>
      <point x="445" y="390"/>
      <point x="445" y="291" type="curve" smooth="yes"/>
      <point x="445" y="190"/>
      <point x="383" y="125"/>
      <point x="284" y="125" type="curve" smooth="yes"/>
      <point x="148" y="125" type="line"/>
      <point x="148" y="0" type="line"/>
      <point x="294" y="0" type="line" smooth="yes"/>
      <point x="469" y="0"/>
      <point x="597" y="114"/>
      <point x="597" y="291" type="curve" smooth="yes"/>
      <point x="597" y="466"/>
      <point x="469" y="580"/>
      <point x="294" y="580" type="curve" smooth="yes"/>
      <point x="148" y="580" type="line"/>
      <point x="148" y="455" type="line"/>
    </contour>
  </outline>
</glyph>
<glyph name="e" format="2">
  <advance width="490"/>
  <unicode hex="0065"/>
  <outline>
    <contour>
      <point x="190" y="126" type="curve"/>
      <point x="166" y="0" type="line"/>
      <point x="424" y="0" type="line"/>
      <point x="444" y="166" type="line"/>
      <point x="409" y="138"/>
      <point x="367" y="121"/>
    </contour>
    <contour>
      <point x="190" y="454" type="line"/>
      <point x="361" y="459"/>
      <point x="396" y="440"/>
      <point x="426" y="424" type="curve"/>
      <point x="426" y="580" type="line"/>
      <point x="166" y="580" type="line"/>
    </contour>
    <contour>
      <point x="158" y="240" type="line"/>
      <point x="341" y="240"/>
      <point x="370" y="234"/>
      <point x="399" y="219" type="curve"/>
      <point x="399" y="382" type="line"/>
      <point x="369" y="366"/>
      <point x="341" y="360"/>
      <point x="158" y="360" type="curve"/>
    </contour>
    <contour>
      <point x="50" y="0" type="curve"/>
      <point x="247" y="0" type="line"/>
      <point x="229" y="35"/>
      <point x="220" y="81"/>
      <point x="220" y="299" type="curve" smooth="yes"/>
      <point x="220" y="502"/>
      <point x="229" y="545"/>
      <point x="247" y="580" type="curve"/>
      <point x="50" y="580" type="line"/>
      <point x="68" y="545"/>
      <point x="77" y="502"/>
      <point x="77" y="299" type="curve" smooth="yes"/>
      <point x="77" y="81"/>
      <point x="68" y="35"/>
    </contour>
  </outline>
</glyph>
<glyph name="f" format="2">
  <advance width="466"/>
  <unicode hex="0066"/>
  <outline>
    <contour>
      <point x="190" y="454" type="line"/>
      <point x="361" y="459"/>
      <point x="396" y="440"/>
      <point x="426" y="424" type="curve"/>
      <point x="426" y="580" type="line"/>
      <point x="166" y="580" type="line"/>
    </contour>
    <contour>
      <point x="158" y="221" type="line"/>
      <point x="341" y="221"/>
      <point x="370" y="215"/>
      <point x="399" y="200" type="curve"/>
      <point x="399" y="363" type="line"/>
      <point x="369" y="347"/>
      <point x="341" y="341"/>
      <point x="158" y="341" type="curve"/>
    </contour>
    <contour>
      <point x="50" y="0" type="curve"/>
      <point x="247" y="0" type="line"/>
      <point x="229" y="35"/>
      <point x="220" y="81"/>
      <point x="220" y="299" type="curve" smooth="yes"/>
      <point x="220" y="502"/>
      <point x="229" y="545"/>
      <point x="247" y="580" type="curve"/>
      <point x="50" y="580" type="line"/>
      <point x="68" y="545"/>
      <point x="77" y="502"/>
      <point x="77" y="299" type="curve" smooth="yes"/>
      <point x="77" y="81"/>
      <point x="68" y="35"/>
    </contour>
  </outline>
</glyph>
<glyph name="g" format="2">
  <advance width="601"/>
  <unicode hex="0067"/>
  <outline>
    <contour>
      <point x="542" y="40" type="curve"/>
      <point x="469" y="9"/>
      <point x="405" y="-15"/>
      <point x="331" y="-15" type="curve" smooth="yes"/>
      <point x="145" y="-15"/>
      <point x="26" y="114"/>
      <point x="26" y="284" type="curve" smooth="yes"/>
      <point x="26" y="464"/>
      <point x="153" y="592"/>
      <point x="337" y="592" type="curve" smooth="yes"/>
      <point x="406" y="592"/>
      <point x="465" y="574"/>
      <point x="526" y="552" type="curve"/>
      <point x="526" y="384" type="line"/>
      <point x="468" y="435"/>
      <point x="406" y="465"/>
      <point x="339" y="465" type="curve" smooth="yes"/>
      <point x="241" y="465"/>
      <point x="178" y="398"/>
      <point x="178" y="291" type="curve" smooth="yes"/>
      <point x="178" y="183"/>
      <point x="241" y="114"/>
      <point x="341" y="114" type="curve" smooth="yes"/>
      <point x="406" y="114"/>
      <point x="468" y="144"/>
      <point x="526" y="195" type="curve"/>
      <point x="406" y="64" type="line"/>
      <point x="403" y="235"/>
      <point x="392" y="270"/>
      <point x="376" y="300" type="curve"/>
      <point x="554" y="300" type="line"/>
      <point x="547" y="270"/>
      <point x="541" y="229"/>
    </contour>
  </outline>
</glyph>
<glyph name="h" format="2">
  <advance width="639"/>
  <unicode hex="0068"/>
  <outline>
    <contour>
      <point x="141" y="241" type="line"/>
      <point x="458" y="241" type="line"/>
      <point x="458" y="368" type="line"/>
      <point x="141" y="368" type="line"/>
    </contour>
    <contour>
      <point x="50" y="0" type="curve"/>
      <point x="247" y="0" type="line"/>
      <point x="229" y="35"/>
      <point x="220" y="81"/>
      <point x="220" y="299" type="curve" smooth="yes"/>
      <point x="220" y="502"/>
      <point x="229" y="545"/>
      <point x="247" y="580" type="curve"/>
      <point x="50" y="580" type="line"/>
      <point x="68" y="545"/>
      <point x="77" y="502"/>
      <point x="77" y="299" type="curve" smooth="yes"/>
      <point x="77" y="81"/>
      <point x="68" y="35"/>
    </contour>
    <contour>
      <point x="392" y="0" type="curve"/>
      <point x="589" y="0" type="line"/>
      <point x="571" y="35"/>
      <point x="562" y="81"/>
      <point x="562" y="299" type="curve" smooth="yes"/>
      <point x="562" y="502"/>
      <point x="571" y="545"/>
      <point x="589" y="580" type="curve"/>
      <point x="392" y="580" type="line"/>
      <point x="410" y="545"/>
      <point x="419" y="502"/>
      <point x="419" y="299" type="curve" smooth="yes"/>
      <point x="419" y="81"/>
      <point x="410" y="35"/>
    </contour>
  </outline>
</glyph>
<glyph name="i" format="2">
  <advance width="307"/>
  <unicode hex="0069"/>
  <outline>
    <contour>
      <point x="55" y="0" type="curve"/>
      <point x="252" y="0" type="line"/>
      <point x="234" y="35"/>
      <point x="225" y="81"/>
      <point x="225" y="299" type="curve" smooth="yes"/>
      <point x="225" y="502"/>
      <point x="234" y="545"/>
      <point x="252" y="580" type="curve"/>
      <point x="55" y="580" type="line"/>
      <point x="73" y="545"/>
      <point x="82" y="502"/>
      <point x="82" y="299" type="curve" smooth="yes"/>
      <point x="82" y="81"/>
      <point x="73" y="35"/>
    </contour>
  </outline>
</glyph>
<glyph name="j" format="2">
  <advance width="432"/>
  <unicode hex="006A"/>
  <outline>
    <contour>
      <point x="225" y="216" type="line" smooth="yes"/>
      <point x="225" y="150"/>
      <point x="192" y="118"/>
      <point x="138" y="118" type="curve" smooth="yes"/>
      <point x="100" y="118"/>
      <point x="58" y="136"/>
      <point x="15" y="181" type="curve"/>
      <point x="15" y="10" type="line"/>
      <point x="63" y="-6"/>
      <point x="110" y="-10"/>
      <point x="150" y="-10" type="curve" smooth="yes"/>
      <point x="289" y="-8"/>
      <point x="368" y="84"/>
      <point x="368" y="211" type="curve" smooth="yes"/>
      <point x="368" y="299" type="line"/>
      <point x="368" y="502"/>
      <point x="377" y="545"/>
      <point x="395" y="580" type="curve"/>
      <point x="198" y="580" type="line"/>
      <point x="216" y="545"/>
      <point x="225" y="502"/>
      <point x="225" y="299" type="curve"/>
    </contour>
  </outline>
</glyph>
<glyph name="k" format="2">
  <advance width="599"/>
  <unicode hex="006B"/>
  <anchor x="311" y="0" name="below"/>
  <anchor x="311" y="580.0" name="above"/>
  <outline>
    <contour>
      <point x="50" y="0" type="curve"/>
      <point x="241" y="0" type="line"/>
      <point x="223" y="35"/>
      <point x="214" y="81"/>
      <point x="214" y="299" type="curve" smooth="yes"/>
      <point x="214" y="502"/>
      <point x="223" y="545"/>
      <point x="241" y="580" type="curve"/>
      <point x="50" y="580" type="line"/>
      <point x="68" y="545"/>
      <point x="77" y="502"/>
      <point x="77" y="299" type="curve" smooth="yes"/>
      <point x="77" y="81"/>
      <point x="68" y="35"/>
    </contour>
    <contour>
      <point x="382" y="0" type="curve"/>
      <point x="609" y="0" type="line"/>
      <point x="564" y="35"/>
      <point x="511" y="81"/>
      <point x="331" y="323" type="curve"/>
      <point x="183" y="299" type="line"/>
      <point x="351" y="81"/>
      <point x="375" y="35"/>
    </contour>
    <contour>
      <point x="394" y="580" type="line"/>
      <point x="386" y="545"/>
      <point x="365" y="518"/>
      <point x="167" y="291" type="curve"/>
      <point x="320" y="286" type="line"/>
      <point x="519" y="515"/>
      <point x="551" y="544"/>
      <point x="601" y="580" type="curve"/>
    </contour>
  </outline>
</glyph>
<glyph name="l" format="2">
  <advance width="454"/>
  <unicode hex="006C"/>
  <outline>
    <contour>
      <point x="170" y="133" type="curve"/>
      <point x="146" y="0" type="line"/>
      <point x="419" y="0" type="line"/>
      <point x="439" y="171" type="line"/>
      <point x="403.009694387027" y="142.39232117943172"/>
      <point x="354.5802302952896" y="127.77603121805784"/>
    </contour>
    <contour>
      <point x="50" y="0" type="curve"/>
      <point x="247" y="0" type="line"/>
      <point x="229" y="35"/>
      <point x="220" y="81"/>
      <point x="220" y="299" type="curve" smooth="yes"/>
      <point x="220" y="502"/>
      <point x="229" y="545"/>
      <point x="247" y="580" type="curve"/>
      <point x="50" y="580" type="line"/>
      <point x="68" y="545"/>
      <point x="77" y="502"/>
      <point x="77" y="299" type="curve" smooth="yes"/>
      <point x="77" y="81"/>
      <point x="68" y="35"/>
    </contour>
  </outline>
</glyph>
<glyph name="m" format="2">
  <advance width="786"/>
  <unicode hex="006D"/>
  <anchor x="390" y="0" name="below"/>
  <anchor x="393" y="580.0" name="above"/>
  <outline>
    <contour>
      <point x="50" y="0" type="curve"/>
      <point x="227" y="0" type="line"/>
      <point x="209" y="35"/>
      <point x="200" y="81"/>
      <point x="200" y="299" type="curve" smooth="yes"/>
      <point x="200" y="502"/>
      <point x="209" y="545"/>
      <point x="227" y="580" type="curve"/>
      <point x="50" y="580" type="line"/>
      <point x="68" y="545"/>
      <point x="77" y="502"/>
      <point x="77" y="299" type="curve" smooth="yes"/>
      <point x="77" y="81"/>
      <point x="68" y="35"/>
    </contour>
    <contour>
      <point x="554" y="0" type="curve"/>
      <point x="736" y="0" type="line"/>
      <point x="718" y="35"/>
      <point x="709" y="81"/>
      <point x="709" y="299" type="curve" smooth="yes"/>
      <point x="709" y="502"/>
      <point x="718" y="545"/>
      <point x="736" y="580" type="curve"/>
      <point x="554" y="580" type="line"/>
      <point x="572" y="545"/>
      <point x="581" y="502"/>
      <point x="581" y="299" type="curve" smooth="yes"/>
      <point x="581" y="81"/>
      <point x="572" y="35"/>
    </contour>
    <contour>
      <point x="424" y="281" type="curve" smooth="yes"/>
      <point x="330" y="0" type="line"/>
      <point x="453" y="0" type="line"/>
      <point x="453" y="33"/>
      <point x="469" y="76"/>
      <point x="538" y="281" type="curve" smooth="yes"/>
      <point x="612" y="501"/>
      <point x="632" y="543"/>
      <point x="659" y="580" type="curve"/>
      <point x="499" y="580" type="line"/>
      <point x="501" y="538"/>
      <point x="497" y="500"/>
    </contour>
    <contour>
      <point x="368" y="281" type="line" smooth="yes"/>
      <point x="302" y="499"/>
      <point x="293" y="538"/>
      <point x="296" y="580" type="curve"/>
      <point x="122" y="580" type="line"/>
      <point x="147" y="544"/>
      <point x="167" y="501"/>
      <point x="240" y="281" type="curve" smooth="yes"/>
      <point x="308" y="76"/>
      <point x="319" y="33"/>
      <point x="322" y="0" type="curve"/>
      <point x="453" y="0" type="line"/>
    </contour>
  </outline>
</glyph>
<glyph name="n" format="2">
  <advance width="635"/>
  <unicode hex="006E"/>
  <outline>
    <contour>
      <point x="575" y="0" type="line"/>
      <point x="563" y="50"/>
      <point x="558" y="95"/>
      <point x="558" y="349" type="curve" smooth="yes"/>
      <point x="558" y="516"/>
      <point x="570" y="550"/>
      <point x="585" y="580" type="curve"/>
      <point x="398" y="580" type="line"/>
      <point x="413" y="550"/>
      <point x="425" y="516"/>
      <point x="425" y="349" type="curve" smooth="yes"/>
      <point x="425" y="204" type="line"/>
      <point x="481" y="188" type="line"/>
      <point x="206" y="580" type="line"/>
      <point x="50" y="580" type="line"/>
      <point x="65" y="550"/>
      <point x="77" y="516"/>
      <point x="77" y="349" type="curve" smooth="yes"/>
      <point x="77" y="95"/>
      <point x="70" y="40"/>
      <point x="50" y="0" type="curve"/>
      <point x="237" y="0" type="line"/>
      <point x="217" y="40"/>
      <point x="210" y="95"/>
      <point x="210" y="349" type="curve" smooth="yes"/>
      <point x="210" y="396" type="line"/>
      <point x="155" y="403" type="line"/>
      <point x="439" y="0" type="line"/>
    </contour>
  </outline>
</glyph>
<glyph name="o" format="2">
  <advance width="638"/>
  <unicode hex="006F"/>
  <outline>
    <contour>
      <point x="319" y="115" type="curve" smooth="yes"/>
      <point x="403" y="115"/>
      <point x="460" y="182"/>
      <point x="460" y="291" type="curve" smooth="yes"/>
      <point x="460" y="399"/>
      <point x="403" y="465"/>
      <point x="319" y="465" type="curve" smooth="yes"/>
      <point x="235" y="465"/>
      <point x="178" y="400"/>
      <point x="178" y="291" type="curve" smooth="yes"/>
      <point x="178" y="182"/>
      <point x="235" y="115"/>
    </contour>
    <contour>
      <point x="319" y="-12" type="curve" smooth="yes"/>
      <point x="147" y="-12"/>
      <point x="26" y="114"/>
      <point x="26" y="291" type="curve" smooth="yes"/>
      <point x="26" y="467"/>
      <point x="147" y="592"/>
      <point x="319" y="592" type="curve" smooth="yes"/>
      <point x="489" y="592"/>
      <point x="612" y="467"/>
      <point x="612" y="291" type="curve" smooth="yes"/>
      <point x="612" y="114"/>
      <point x="489" y="-12"/>
    </contour>
  </outline>
</glyph>
<glyph name="p" format="2">
  <advance width="541"/>
  <unicode hex="0070"/>
  <outline>
    <contour>
      <point x="50" y="0" type="curve"/>
      <point x="241" y="0" type="line"/>
      <point x="225" y="31"/>
      <point x="214" y="68"/>
      <point x="214" y="249" type="curve" smooth="yes"/>
      <point x="214" y="489"/>
      <point x="221" y="541"/>
      <point x="241" y="580" type="curve"/>
      <point x="50" y="580" type="line"/>
      <point x="70" y="541"/>
      <point x="77" y="489"/>
      <point x="77" y="249" type="curve" smooth="yes"/>
      <point x="77" y="68"/>
      <point x="66" y="31"/>
    </contour>
    <contour>
      <point x="385" y="374" type="curve" smooth="yes"/>
      <point x="385" y="322"/>
      <point x="353" y="289"/>
      <point x="297" y="289" type="curve" smooth="yes"/>
      <point x="180" y="289" type="line"/>
      <point x="180" y="170" type="line"/>
      <point x="295" y="170" type="line" smooth="yes"/>
      <point x="438" y="170"/>
      <point x="526" y="253"/>
      <point x="526" y="376" type="curve" smooth="yes"/>
      <point x="526" y="499"/>
      <point x="438" y="580"/>
      <point x="295" y="580" type="curve" smooth="yes"/>
      <point x="180" y="580" type="line"/>
      <point x="180" y="461" type="line"/>
      <point x="297" y="461" type="line" smooth="yes"/>
      <point x="353" y="461"/>
      <point x="385" y="426"/>
    </contour>
  </outline>
</glyph>
<glyph name="q" format="2">
  <advance width="638"/>
  <unicode hex="0071"/>
  <outline>
    <contour>
      <point x="319" y="109" type="curve" smooth="yes"/>
      <point x="405.0" y="109.0"/>
      <point x="463.0" y="178"/>
      <point x="463" y="291" type="curve" smooth="yes"/>
      <point x="463.0" y="403"/>
      <point x="405.0" y="471.0"/>
      <point x="319" y="471" type="curve" smooth="yes"/>
      <point x="233.0" y="471.0"/>
      <point x="175.0" y="404"/>
      <point x="175" y="291" type="curve" smooth="yes"/>
      <point x="175.0" y="178"/>
      <point x="233.0" y="109.0"/>
    </contour>
    <contour>
      <point x="319" y="-12" type="curve" smooth="yes"/>
      <point x="149" y="-12.0"/>
      <point x="29.0" y="114.0"/>
      <point x="29" y="291" type="curve" smooth="yes"/>
      <point x="29.0" y="467.0"/>
      <point x="149" y="592.0"/>
      <point x="319" y="592" type="curve" smooth="yes"/>
      <point x="487" y="592.0"/>
      <point x="609.0" y="467.0"/>
      <point x="609" y="291" type="curve" smooth="yes"/>
      <point x="609.0" y="114.0"/>
      <point x="487" y="-12.0"/>
    </contour>
    <contour>
      <point x="473" y="124" type="line"/>
      <point x="536" y="25"/>
      <point x="578" y="-16"/>
      <point x="719" y="-61" type="curve"/>
      <point x="642" y="-173"/>
      <point x="455" y="-137"/>
      <point x="347" y="66" type="curve"/>
    </contour>
  </outline>
</glyph>
<glyph name="r" format="2">
  <advance width="574"/>
  <unicode hex="0072"/>
  <anchor x="311" y="0" name="below"/>
  <anchor x="273" y="580" name="above"/>
  <outline>
    <contour>
      <point x="188" y="203" type="line"/>
      <point x="290" y="203" type="line" smooth="yes"/>
      <point x="418" y="203"/>
      <point x="507" y="280"/>
      <point x="507" y="392" type="curve" smooth="yes"/>
      <point x="507" y="504"/>
      <point x="419" y="580"/>
      <point x="276" y="580" type="curve" smooth="yes"/>
      <point x="188" y="580" type="line"/>
      <point x="188" y="461" type="line"/>
      <point x="278" y="461" type="line" smooth="yes"/>
      <point x="333" y="461"/>
      <point x="365" y="433"/>
      <point x="365" y="389" type="curve" smooth="yes"/>
      <point x="365" y="345"/>
      <point x="333" y="317"/>
      <point x="288" y="317" type="curve" smooth="yes"/>
      <point x="188" y="317" type="line"/>
    </contour>
    <contour>
      <point x="379" y="0" type="curve"/>
      <point x="599" y="0" type="line"/>
      <point x="555" y="38"/>
      <point x="520" y="73"/>
      <point x="367" y="305" type="curve"/>
      <point x="219" y="305" type="line"/>
      <point x="364" y="76"/>
      <point x="376" y="35"/>
    </contour>
    <contour>
      <point x="50" y="0" type="curve"/>
      <point x="241" y="0" type="line"/>
      <point x="223" y="35"/>
      <point x="214" y="81"/>
      <point x="214" y="299" type="curve" smooth="yes"/>
      <point x="214" y="502"/>
      <point x="223" y="545"/>
      <point x="241" y="580" type="curve"/>
      <point x="50" y="580" type="line"/>
      <point x="68" y="545"/>
      <point x="77" y="502"/>
      <point x="77" y="299" type="curve" smooth="yes"/>
      <point x="77" y="81"/>
      <point x="68" y="35"/>
    </contour>
  </outline>
</glyph>
<glyph name="s" format="2">
  <advance width="495"/>
  <unicode hex="0073"/>
  <outline>
    <contour>
      <point x="314" y="164" type="curve" smooth="yes"/>
      <point x="314" y="135"/>
      <point x="288.0" y="113.0"/>
      <point x="234" y="113" type="curve" smooth="yes"/>
      <point x="175" y="113.0"/>
      <point x="107.43929455393837" y="137.7761432291328"/>
      <point x="52" y="181" type="curve"/>
      <point x="52" y="15" type="line"/>
      <point x="112.44797248125423" y="-1.239753800933972"/>
      <point x="168.31578947368422" y="-13.0"/>
      <point x="222" y="-13" type="curve" smooth="yes"/>
      <point x="361.9993608281717" y="-13.99999543448694"/>
      <point x="463" y="53"/>
      <point x="463.0" y="169" type="curve" smooth="yes"/>
      <point x="463.0" y="353"/>
      <point x="199.0" y="346"/>
      <point x="199" y="418" type="curve" smooth="yes"/>
      <point x="199" y="445"/>
      <point x="221.62637362637363" y="466.0"/>
      <point x="270" y="466" type="curve" smooth="yes"/>
      <point x="323" y="466.0"/>
      <point x="383" y="441"/>
      <point x="434" y="400" type="curve"/>
      <point x="434" y="564" type="line"/>
      <point x="380" y="579"/>
      <point x="331" y="590.0"/>
      <point x="283" y="590" type="curve" smooth="yes"/>
      <point x="142.0" y="590.0"/>
      <point x="48" y="521"/>
      <point x="48" y="414" type="curve" smooth="yes"/>
      <point x="48.0" y="224"/>
      <point x="314.0" y="235"/>
    </contour>
  </outline>
</glyph>
<glyph name="u" format="2">
  <advance width="620"/>
  <unicode hex="0075"/>
  <anchor x="412" y="580" name="horn"/>
  <anchor x="310" y="-5" name="below"/>
  <anchor x="310" y="580.0" name="above"/>
  <outline>
    <contour>
      <point x="310" y="-16" type="curve" smooth="yes"/>
      <point x="452.76250000000005" y="-16.0"/>
      <point x="553" y="66.0"/>
      <point x="553" y="203" type="curve" smooth="yes"/>
      <point x="553" y="299" type="line" smooth="yes"/>
      <point x="553" y="503"/>
      <point x="562" y="546"/>
      <point x="580" y="580" type="curve"/>
      <point x="389" y="580" type="line"/>
      <point x="407" y="546"/>
      <point x="416" y="503"/>
      <point x="416" y="299" type="curve" smooth="yes"/>
      <point x="416" y="224" type="line" smooth="yes"/>
      <point x="416" y="157.0"/>
      <point x="374.8349514563107" y="113.0"/>
      <point x="310" y="113" type="curve" smooth="yes"/>
      <point x="245.16504854368932" y="113.0"/>
      <point x="204" y="157.0"/>
      <point x="204" y="224" type="curve" smooth="yes"/>
      <point x="204" y="299" type="line" smooth="yes"/>
      <point x="204" y="503"/>
      <point x="213" y="546"/>
      <point x="231" y="580" type="curve"/>
      <point x="40" y="580" type="line"/>
      <point x="58" y="546"/>
      <point x="67" y="503"/>
      <point x="67" y="299" type="curve" smooth="yes"/>
      <point x="67" y="203" type="line" smooth="yes"/>
      <point x="67" y="66.0"/>
      <point x="167.23749999999998" y="-16.0"/>
    </contour>
  </outline>
</glyph>
<glyph name="w" format="2">
  <advance width="795"/>
  <unicode hex="0077"/>
  <anchor x="398" y="0" name="below"/>
  <anchor x="398" y="580.0" name="above"/>
  <outline>
    <contour>
      <point x="247" y="282" type="line" smooth="yes"/>
      <point x="188" y="500"/>
      <point x="184" y="538"/>
      <point x="205" y="580" type="curve"/>
      <point x="5" y="580" type="line"/>
      <point x="27" y="546"/>
      <point x="43" y="499"/>
      <point x="106" y="282" type="curve" smooth="yes"/>
      <point x="165" y="78"/>
      <point x="175" y="33"/>
      <point x="178" y="0" type="curve"/>
      <point x="325" y="0" type="line"/>
    </contour>
    <contour>
      <point x="558" y="282" type="curve" smooth="yes"/>
      <point x="480" y="0" type="line"/>
      <point x="617" y="0" type="line"/>
      <point x="615" y="33"/>
      <point x="630" y="78"/>
      <point x="688" y="282" type="curve" smooth="yes"/>
      <point x="752" y="499"/>
      <point x="768" y="546"/>
      <point x="790" y="580" type="curve"/>
      <point x="599" y="580" type="line"/>
      <point x="621" y="538"/>
      <point x="618" y="499"/>
    </contour>
    <contour>
      <point x="336" y="580" type="line"/>
      <point x="340" y="538"/>
      <point x="337" y="499"/>
      <point x="277" y="282" type="curve" smooth="yes"/>
      <point x="199" y="0" type="line"/>
      <point x="326" y="0" type="line"/>
      <point x="324" y="33"/>
      <point x="339" y="78"/>
      <point x="397" y="282" type="curve" smooth="yes"/>
      <point x="429" y="391"/>
      <point x="449" y="457"/>
      <point x="464" y="501" type="curve"/>
      <point x="345" y="462" type="line"/>
      <point x="358" y="420"/>
      <point x="375" y="363"/>
      <point x="399" y="282" type="curve" smooth="yes"/>
      <point x="458" y="78"/>
      <point x="468" y="33"/>
      <point x="470" y="0" type="curve"/>
      <point x="609" y="0" type="line"/>
      <point x="531" y="282" type="line" smooth="yes"/>
      <point x="472" y="500"/>
      <point x="468" y="538"/>
      <point x="473" y="580" type="curve"/>
    </contour>
  </outline>
</glyph>
<glyph name="x" format="2">
  <advance width="595"/>
  <unicode hex="0078"/>
  <outline>
    <contour>
      <point x="338" y="256" type="line"/>
      <point x="212" y="75"/>
      <point x="197" y="38"/>
      <point x="199" y="0" type="curve"/>
      <point x="0" y="0" type="line"/>
      <point x="38" y="34"/>
      <point x="76" y="81"/>
      <point x="225" y="297" type="curve"/>
      <point x="261" y="349" type="line"/>
      <point x="373" y="509"/>
      <point x="386" y="544"/>
      <point x="384" y="580" type="curve"/>
      <point x="583" y="580" type="line"/>
      <point x="545" y="546"/>
      <point x="506" y="499"/>
      <point x="358" y="283" type="curve"/>
    </contour>
    <contour>
      <point x="366" y="312" type="line"/>
      <point x="513" y="86"/>
      <point x="556" y="34"/>
      <point x="595" y="0" type="curve"/>
      <point x="378" y="0" type="line"/>
      <point x="380" y="37"/>
      <point x="362" y="74"/>
      <point x="251" y="245" type="curve"/>
      <point x="226" y="282" type="line"/>
      <point x="86" y="499"/>
      <point x="47" y="546"/>
      <point x="9" y="580" type="curve"/>
      <point x="226" y="580" type="line"/>
      <point x="224" y="546"/>
      <point x="240" y="510"/>
      <point x="334" y="362" type="curve"/>
    </contour>
  </outline>
</glyph>
<glyph name="y" format="2">
  <advance width="563"/>
  <unicode hex="0079"/>
  <anchor x="289" y="0" name="below"/>
  <anchor x="282" y="580.0" name="above"/>
  <outline>
    <contour>
      <point x="216" y="298" type="line"/>
      <point x="216" y="81"/>
      <point x="210" y="34"/>
      <point x="193" y="0" type="curve"/>
      <point x="383" y="0" type="line"/>
      <point x="366" y="34"/>
      <point x="360" y="81"/>
      <point x="360" y="298" type="curve"/>
    </contour>
    <contour>
      <point x="331" y="179" type="line"/>
      <point x="501" y="486"/>
      <point x="532" y="541"/>
      <point x="568" y="580" type="curve"/>
      <point x="382" y="580" type="line"/>
      <point x="392" y="539"/>
      <point x="383" y="504"/>
      <point x="253" y="288" type="curve"/>
    </contour>
    <contour>
      <point x="324" y="288" type="line"/>
      <point x="194" y="505"/>
      <point x="186" y="539"/>
      <point x="196" y="580" type="curve"/>
      <point x="-5" y="580" type="line"/>
      <point x="31" y="541"/>
      <point x="75" y="486"/>
      <point x="244" y="181" type="curve"/>
    </contour>
  </outline>
</glyph>
<glyph name="cent" format="2">
  <advance width="469"/>
  <unicode hex="00A2"/>
  <outline>
    <contour>
      <point x="200" y="500" type="line"/>
      <point x="325" y="500" type="line"/>
      <point x="336" y="680" type="line"/>
      <point x="211" y="680" type="line"/>
    </contour>
    <contour>
      <point x="169" y="-50" type="line"/>
      <point x="294" y="-50" type="line"/>
      <point x="303" y="100" type="line"/>
      <point x="178" y="100" type="line"/>
    </contour>
    <contour>
      <point x="28" y="313" type="curve" smooth="yes"/>
      <point x="28" y="163"/>
      <point x="133" y="59"/>
      <point x="288" y="59" type="curve" smooth="yes"/>
      <point x="334" y="59"/>
      <point x="382" y="67"/>
      <point x="419" y="84" type="curve"/>
      <point x="419" y="226" type="line"/>
      <point x="383" y="197"/>
      <point x="335" y="173"/>
      <point x="289" y="173" type="curve" smooth="yes"/>
      <point x="220" y="173"/>
      <point x="174" y="226"/>
      <point x="174" y="313" type="curve" smooth="yes"/>
      <point x="174" y="400"/>
      <point x="220" y="453"/>
      <point x="289" y="453" type="curve" smooth="yes"/>
      <point x="335" y="453"/>
      <point x="383" y="429"/>
      <point x="419" y="400" type="curve"/>
      <point x="419" y="542" type="line"/>
      <point x="382" y="559"/>
      <point x="334" y="567"/>
      <point x="288" y="567" type="curve" smooth="yes"/>
      <point x="132" y="567"/>
      <point x="28" y="464"/>
    </contour>
  </outline>
</glyph>
<glyph name="sterling" format="2">
  <advance width="566"/>
  <unicode hex="00A3"/>
  <outline>
    <contour>
      <point x="291" y="199" type="curve" smooth="yes"/>
      <point x="291.0" y="95.0"/>
      <point x="234" y="51"/>
      <point x="117" y="62" type="curve"/>
      <point x="97" y="127" type="line"/>
      <point x="141.0" y="127.0"/>
      <point x="147.0" y="149"/>
      <point x="147" y="194" type="curve" smooth="yes"/>
      <point x="147" y="254"/>
      <point x="105" y="373"/>
      <point x="105" y="481" type="curve" smooth="yes"/>
      <point x="105.0" y="672.0"/>
      <point x="316.24598976863604" y="728.8744013876369"/>
      <point x="501" y="666" type="curve"/>
      <point x="501" y="500" type="line"/>
      <point x="439" y="549"/>
      <point x="397.0" y="568.0"/>
      <point x="347" y="568.0" type="curve" smooth="yes"/>
      <point x="291" y="568.0"/>
      <point x="250.0" y="539.0"/>
      <point x="250" y="469" type="curve" smooth="yes"/>
      <point x="250" y="405"/>
      <point x="291" y="295"/>
    </contour>
    <contour>
      <point x="60" y="277" type="line"/>
      <point x="60" y="389" type="line"/>
      <point x="476" y="389" type="line"/>
      <point x="466" y="277" type="line"/>
    </contour>
    <contour>
      <point x="186" y="0" type="line"/>
      <point x="60" y="0" type="line"/>
      <point x="60" y="127" type="line"/>
      <point x="217" y="127" type="line" smooth="yes"/>
      <point x="429" y="127.0"/>
      <point x="483" y="135"/>
      <point x="526" y="171" type="curve"/>
      <point x="506" y="0" type="line"/>
    </contour>
  </outline>
</glyph>
<glyph name="section" format="2">
  <advance width="505"/>
  <unicode hex="00A7"/>
  <outline>
    <contour>
      <point x="332.0" y="286.0" type="curve" smooth="yes"/>
      <point x="332.0" y="256.53333333333336"/>
      <point x="306.0" y="235.0"/>
      <point x="261.0" y="235.0" type="curve" smooth="yes"/>
      <point x="209.0" y="235.0"/>
      <point x="172.0" y="261.6666666666667"/>
      <point x="172.0" y="295.0" type="curve" smooth="yes"/>
      <point x="172.0" y="324.46666666666664"/>
      <point x="198.0" y="346.0"/>
      <point x="243" y="346.0" type="curve" smooth="yes"/>
      <point x="295.0" y="346.0"/>
      <point x="332.0" y="319.3333333333333"/>
    </contour>
    <contour>
      <point x="67" y="-89" type="line"/>
      <point x="278" y="-156"/>
      <point x="454.0" y="-76.0"/>
      <point x="454" y="64" type="curve" smooth="yes"/>
      <point x="454.0" y="144.0"/>
      <point x="389.57526305692375" y="173.94648329489482"/>
      <point x="343" y="193" type="curve"/>
      <point x="198" y="171" type="line"/>
      <point x="379" y="140"/>
      <point x="465.0" y="224"/>
      <point x="465" y="312" type="curve" smooth="yes"/>
      <point x="465.0" y="477.0"/>
      <point x="213.0" y="469.0"/>
      <point x="213" y="533" type="curve" smooth="yes"/>
      <point x="213" y="557"/>
      <point x="238" y="572"/>
      <point x="282" y="572.0" type="curve" smooth="yes"/>
      <point x="328" y="572"/>
      <point x="377" y="554"/>
      <point x="429" y="522" type="curve"/>
      <point x="429" y="670" type="line"/>
      <point x="229" y="728"/>
      <point x="62.0" y="657.0"/>
      <point x="62" y="510" type="curve" smooth="yes"/>
      <point x="62.0" y="431.0"/>
      <point x="119.0358585769089" y="398.1493609599741"/>
      <point x="171" y="378" type="curve"/>
      <point x="306" y="400" type="line"/>
      <point x="123.56637514567782" y="431.0738591784834"/>
      <point x="39.0" y="350"/>
      <point x="39" y="267" type="curve" smooth="yes"/>
      <point x="39.0" y="103.0"/>
      <point x="303.0" y="111.0"/>
      <point x="303.0" y="48" type="curve" smooth="yes"/>
      <point x="303.0" y="23.0"/>
      <point x="276" y="9"/>
      <point x="228" y="9" type="curve" smooth="yes"/>
      <point x="177" y="9"/>
      <point x="124" y="27"/>
      <point x="67" y="60" type="curve"/>
    </contour>
  </outline>
</glyph>
<glyph name="copyright" format="2">
  <advance width="812"/>
  <unicode hex="00A9"/>
  <outline>
    <contour>
      <point x="406.0" y="85.0" type="curve" smooth="yes"/>
      <point x="553.2686567164179" y="85.0"/>
      <point x="659.0" y="193.0"/>
      <point x="659.0" y="340.0" type="curve" smooth="yes"/>
      <point x="659.0" y="487.0"/>
      <point x="553.2686567164179" y="595.0"/>
      <point x="406.0" y="595.0" type="curve" smooth="yes"/>
      <point x="258.7313432835821" y="595.0"/>
      <point x="153.0" y="487.0"/>
      <point x="153.0" y="340.0" type="curve" smooth="yes"/>
      <point x="153.0" y="193.0"/>
      <point x="258.7313432835821" y="85.0"/>
    </contour>
    <contour>
      <point x="520.0" y="180" type="line"/>
      <point x="494" y="169"/>
      <point x="462" y="163"/>
      <point x="429" y="163.0" type="curve" smooth="yes"/>
      <point x="328" y="163.0"/>
      <point x="250.0" y="234"/>
      <point x="250.0" y="339" type="curve" smooth="yes"/>
      <point x="250.0" y="444"/>
      <point x="328" y="517.0"/>
      <point x="429" y="517.0" type="curve" smooth="yes"/>
      <point x="462" y="517"/>
      <point x="494" y="511"/>
      <point x="520.0" y="500" type="curve"/>
      <point x="520.0" y="396" type="line"/>
      <point x="499" y="411"/>
      <point x="469" y="426.0"/>
      <point x="439.0" y="426.0" type="curve" smooth="yes"/>
      <point x="391" y="426.0"/>
      <point x="358" y="395"/>
      <point x="358.0" y="340" type="curve" smooth="yes"/>
      <point x="358" y="285"/>
      <point x="392" y="255.0"/>
      <point x="440" y="255.0" type="curve" smooth="yes"/>
      <point x="469" y="255.0"/>
      <point x="498" y="268"/>
      <point x="520.0" y="285" type="curve"/>
    </contour>
    <contour>
      <point x="406.0" y="-15.0" type="curve" smooth="yes"/>
      <point x="198.0" y="-15"/>
      <point x="48.0" y="135"/>
      <point x="48" y="340" type="curve" smooth="yes"/>
      <point x="48.0" y="545"/>
      <point x="198" y="695.0"/>
      <point x="406" y="695" type="curve" smooth="yes"/>
      <point x="614.0" y="695.0"/>
      <point x="764.0" y="545.0"/>
      <point x="764.0" y="340.0" type="curve" smooth="yes"/>
      <point x="764.0" y="135.0"/>
      <point x="614.0" y="-15.0"/>
    </contour>
  </outline>
</glyph>
<glyph name="ordfeminine" format="2">
  <advance width="495"/>
  <unicode hex="00AA"/>
  <outline>
    <contour>
      <point x="320" y="295" type="line"/>
      <point x="320" y="406" type="line"/>
      <point x="351" y="490" type="line"/>
      <point x="320" y="549" type="line"/>
      <point x="320" y="680" type="line"/>
      <point x="439" y="680" type="line"/>
      <point x="439" y="295" type="line"/>
    </contour>
    <contour>
      <point x="244" y="380" type="curve" smooth="yes"/>
      <point x="292.0" y="380.0"/>
      <point x="324.0" y="422.99029126213594"/>
      <point x="324" y="488" type="curve" smooth="yes"/>
      <point x="324.0" y="552.9642857142857"/>
      <point x="292.0" y="595.0"/>
      <point x="244" y="595" type="curve" smooth="yes"/>
      <point x="195.91304347826087" y="595.0"/>
      <point x="165.0" y="553.9196428571429"/>
      <point x="165" y="488" type="curve" smooth="yes"/>
      <point x="165.0" y="422.99029126213594"/>
      <point x="196.0" y="380.0"/>
    </contour>
    <contour>
      <point x="367" y="537" type="curve"/>
      <point x="367" y="431" type="line"/>
      <point x="367.0" y="350"/>
      <point x="306.0" y="284.0"/>
      <point x="226" y="284" type="curve" smooth="yes"/>
      <point x="128.42105263157896" y="284.0"/>
      <point x="46.0" y="367.0"/>
      <point x="46" y="488" type="curve" smooth="yes"/>
      <point x="46.0" y="611.0"/>
      <point x="128.2200956937799" y="692.0"/>
      <point x="225" y="692" type="curve" smooth="yes"/>
      <point x="305.641975308642" y="692.0"/>
      <point x="367.0" y="624.0"/>
    </contour>
    <contour>
      <point x="66.0" y="113.0" type="line"/>
      <point x="439.0" y="113.0" type="line"/>
      <point x="439.0" y="222.0" type="line"/>
      <point x="66.0" y="222.0" type="line"/>
    </contour>
  </outline>
</glyph>
<glyph name="logicalnot" format="2">
  <advance width="490"/>
  <unicode hex="00AC"/>
  <outline>
    <contour>
      <point x="450.0" y="174.0" type="line"/>
      <point x="450.0" y="446.0" type="line"/>
      <point x="321.0" y="446.0" type="line"/>
      <point x="321.0" y="174.0" type="line"/>
    </contour>
    <contour>
      <point x="40.0" y="319.0" type="line"/>
      <point x="450.0" y="319.0" type="line"/>
      <point x="450.0" y="446.0" type="line"/>
      <point x="40.0" y="446.0" type="line"/>
    </contour>
  </outline>
</glyph>
<glyph name="registered" format="2">
  <advance width="614"/>
  <unicode hex="00AE"/>
  <outline>
    <contour>
      <point x="190" y="313.0" type="curve"/>
      <point x="287" y="313.0" type="line"/>
      <point x="279" y="329"/>
      <point x="276" y="352"/>
      <point x="276" y="453" type="curve" smooth="yes"/>
      <point x="276.0" y="552.187969924812"/>
      <point x="278.8591655445662" y="573.7359353960617"/>
      <point x="287" y="589.0" type="curve"/>
      <point x="190" y="589.0" type="line"/>
      <point x="198.1408344554338" y="573.7359353960617"/>
      <point x="202.0" y="552.187969924812"/>
      <point x="202" y="453" type="curve" smooth="yes"/>
      <point x="202" y="352"/>
      <point x="198" y="329"/>
    </contour>
    <contour>
      <point x="260" y="401" type="line"/>
      <point x="317" y="401" type="line" smooth="yes"/>
      <point x="378.0" y="401"/>
      <point x="420.0" y="439.4545454545455"/>
      <point x="420" y="495" type="curve" smooth="yes"/>
      <point x="420.0" y="551.8131868131868"/>
      <point x="378.0" y="589.0"/>
      <point x="311" y="589.0" type="curve" smooth="yes"/>
      <point x="260" y="589.0" type="line"/>
      <point x="260" y="527" type="line"/>
      <point x="303" y="527" type="line" smooth="yes"/>
      <point x="329" y="527"/>
      <point x="344" y="514"/>
      <point x="344" y="494" type="curve" smooth="yes"/>
      <point x="344" y="473"/>
      <point x="329" y="461"/>
      <point x="307" y="461" type="curve" smooth="yes"/>
      <point x="260" y="461" type="line"/>
    </contour>
    <contour>
      <point x="354.0" y="313.0" type="curve"/>
      <point x="463" y="313.0" type="line"/>
      <point x="442.8330266820339" y="330.28597712968525"/>
      <point x="409.24520365896467" y="365.57334563340146"/>
      <point x="359" y="453" type="curve"/>
      <point x="278" y="453" type="line"/>
      <point x="346" y="355"/>
      <point x="353" y="329"/>
    </contour>
    <contour>
      <point x="307" y="196" type="curve" smooth="yes"/>
      <point x="450" y="196.0"/>
      <point x="554.0" y="300.0"/>
      <point x="554" y="443" type="curve" smooth="yes"/>
      <point x="554.0" y="586.0"/>
      <point x="450" y="690.0"/>
      <point x="307" y="690" type="curve" smooth="yes"/>
      <point x="164" y="690.0"/>
      <point x="60.0" y="586.0"/>
      <point x="60" y="443" type="curve" smooth="yes"/>
      <point x="60.0" y="300.0"/>
      <point x="164" y="196.0"/>
    </contour>
    <contour>
      <point x="307" y="186" type="curve" smooth="yes"/>
      <point x="158" y="186"/>
      <point x="50" y="294"/>
      <point x="50" y="443" type="curve" smooth="yes"/>
      <point x="50" y="592"/>
      <point x="158" y="700"/>
      <point x="307" y="700" type="curve" smooth="yes"/>
      <point x="456" y="700"/>
      <point x="564" y="592"/>
      <point x="564" y="443" type="curve" smooth="yes"/>
      <point x="564" y="294"/>
      <point x="456" y="186"/>
    </contour>
  </outline>
</glyph>
<glyph name="mu.math" format="2">
  <advance width="593"/>
  <unicode hex="00B5"/>
  <outline>
    <contour>
      <point x="528.0" y="517.0" type="line"/>
      <point x="528.0" y="0.0" type="line"/>
      <point x="383.0" y="0.0" type="line"/>
      <point x="383.0" y="517.0" type="line"/>
    </contour>
    <contour>
      <point x="202.0" y="237.0" type="line"/>
      <point x="202.0" y="-160.0" type="line"/>
      <point x="57.0" y="-160.0" type="line"/>
      <point x="57.0" y="517.0" type="line"/>
      <point x="202.0" y="517.0" type="line"/>
      <point x="202.0" y="205.0" type="line"/>
      <point x="202.0" y="152.0"/>
      <point x="229" y="116.0"/>
      <point x="289.0" y="116.0" type="curve" smooth="yes"/>
      <point x="348" y="116.0"/>
      <point x="383.0" y="148.0"/>
      <point x="383.0" y="205.0" type="curve"/>
      <point x="452.0" y="173.0" type="line"/>
      <point x="452.0" y="70.0"/>
      <point x="371.0" y="-14.0"/>
      <point x="272" y="-14" type="curve" smooth="yes"/>
      <point x="202.0" y="-14.0"/>
      <point x="162.0" y="31.0"/>
      <point x="162.0" y="105.0" type="curve"/>
    </contour>
  </outline>
</glyph>
<glyph name="paragraph" format="2">
  <advance width="768"/>
  <unicode hex="00B6"/>
  <outline>
    <contour>
      <point x="488" y="0" type="line"/>
      <point x="468" y="40"/>
      <point x="461" y="95"/>
      <point x="461" y="349" type="curve" smooth="yes"/>
      <point x="461" y="680" type="line"/>
      <point x="301" y="680" type="line"/>
      <point x="321" y="641"/>
      <point x="328" y="589"/>
      <point x="328" y="349" type="curve" smooth="yes"/>
      <point x="328" y="95"/>
      <point x="321" y="40"/>
      <point x="301" y="0" type="curve"/>
    </contour>
    <contour>
      <point x="402" y="257" type="line"/>
      <point x="402" y="377" type="line"/>
      <point x="277" y="377" type="line" smooth="yes"/>
      <point x="229.0" y="377.0"/>
      <point x="194.0" y="412.0"/>
      <point x="194" y="466" type="curve" smooth="yes"/>
      <point x="194.0" y="520.0"/>
      <point x="228" y="555"/>
      <point x="287" y="555" type="curve" smooth="yes"/>
      <point x="614" y="555" type="line"/>
      <point x="614" y="680" type="line"/>
      <point x="289" y="680" type="line" smooth="yes"/>
      <point x="139" y="680"/>
      <point x="47.0" y="595.0"/>
      <point x="47" y="469" type="curve" smooth="yes"/>
      <point x="47.0" y="343.0"/>
      <point x="140.0" y="257.0"/>
      <point x="275" y="257" type="curve" smooth="yes"/>
    </contour>
    <contour>
      <point x="708" y="0" type="line"/>
      <point x="688" y="40"/>
      <point x="681" y="95"/>
      <point x="681" y="349" type="curve" smooth="yes"/>
      <point x="681" y="589"/>
      <point x="688" y="641"/>
      <point x="708" y="680" type="curve"/>
      <point x="548" y="680" type="line"/>
      <point x="548" y="349" type="line"/>
      <point x="548" y="95"/>
      <point x="541" y="40"/>
      <point x="521" y="0" type="curve"/>
    </contour>
  </outline>
</glyph>
<glyph name="periodcentered" format="2">
  <advance width="291"/>
  <unicode hex="00B7"/>
  <outline>
    <contour>
      <point x="65" y="249" type="line"/>
      <point x="226" y="249" type="line"/>
      <point x="226" y="410" type="line"/>
      <point x="65" y="410" type="line"/>
    </contour>
  </outline>
</glyph>
<glyph name="onesuperior" format="2">
  <advance width="344"/>
  <unicode hex="00B9"/>
  <outline>
    <contour>
      <point x="219" y="582" type="line"/>
      <point x="132" y="571"/>
      <point x="75" y="554"/>
      <point x="40" y="529" type="curve"/>
      <point x="40" y="653" type="line"/>
      <point x="265" y="694.0" type="line"/>
      <point x="257.0" y="659"/>
      <point x="254" y="629"/>
      <point x="254" y="484" type="curve" smooth="yes"/>
      <point x="254" y="329"/>
      <point x="258" y="296"/>
      <point x="272" y="271" type="curve"/>
      <point x="108" y="271" type="line"/>
      <point x="128" y="298"/>
      <point x="133" y="329"/>
      <point x="133" y="484" type="curve" smooth="yes"/>
      <point x="133" y="537"/>
      <point x="133" y="555"/>
      <point x="131" y="583" type="curve"/>
    </contour>
  </outline>
</glyph>
<glyph name="Eth" format="2">
  <advance width="701"/>
  <unicode hex="00D0"/>
  <outline>
    <contour>
      <point x="25" y="277" type="line"/>
      <point x="365" y="277" type="line"/>
      <point x="365" y="404" type="line"/>
      <point x="25" y="404" type="line"/>
    </contour>
    <component base="D" xOffset="10"/>
  </outline>
</glyph>
<glyph name="Oslash" format="2">
  <advance width="740"/>
  <unicode hex="00D8"/>
  <anchor x="370" y="-15" name="below"/>
  <anchor x="360" y="690" name="above"/>
  <outline>
    <contour>
      <point x="95" y="-33" type="line"/>
      <point x="203" y="-91" type="line"/>
      <point x="641" y="714" type="line"/>
      <point x="533" y="772" type="line"/>
    </contour>
    <component base="O"/>
  </outline>
</glyph>
<glyph name="germandbls" format="2">
  <advance width="588"/>
  <unicode hex="00DF"/>
  <outline>
    <contour>
      <point x="200" y="79"/>
      <point x="206" y="33"/>
      <point x="223" y="0" type="curve"/>
      <point x="40" y="0" type="line"/>
      <point x="57" y="33"/>
      <point x="63" y="79"/>
      <point x="63" y="364" type="curve" smooth="yes"/>
      <point x="63" y="497"/>
      <point x="138" y="580"/>
      <point x="272" y="580" type="curve" smooth="yes"/>
      <point x="555" y="580" type="line"/>
      <point x="421" y="463" type="line"/>
      <point x="273" y="463" type="line" smooth="yes"/>
      <point x="223" y="463"/>
      <point x="200" y="422"/>
      <point x="200" y="360" type="curve" smooth="yes"/>
    </contour>
    <contour>
      <point x="556" y="171" type="curve" smooth="yes"/>
      <point x="556" y="39"/>
      <point x="444" y="-35"/>
      <point x="251" y="3" type="curve"/>
      <point x="251" y="149" type="line"/>
      <point x="344" y="89"/>
      <point x="422" y="107"/>
      <point x="422" y="164" type="curve" smooth="yes"/>
      <point x="422" y="216"/>
      <point x="371" y="245"/>
      <point x="245" y="265" type="curve"/>
      <point x="368" y="349" type="line"/>
      <point x="478" y="326"/>
      <point x="556" y="282"/>
    </contour>
    <contour>
      <point x="555" y="580" type="line"/>
      <point x="389" y="275" type="line"/>
      <point x="245" y="265" type="line"/>
      <point x="411" y="580" type="line"/>
    </contour>
  </outline>
</glyph>
<glyph name="ae" format="2">
  <advance width="777"/>
  <unicode hex="00E6"/>
  <anchor x="443" y="0" name="below"/>
  <anchor x="443" y="580.0" name="above"/>
  <outline>
    <contour>
      <point x="477" y="120" type="curve"/>
      <point x="453" y="0" type="line"/>
      <point x="711" y="0" type="line"/>
      <point x="731" y="160" type="line"/>
      <point x="696" y="132"/>
      <point x="654" y="115"/>
    </contour>
    <contour>
      <point x="477" y="460" type="line"/>
      <point x="648" y="465"/>
      <point x="683" y="446"/>
      <point x="713" y="430" type="curve"/>
      <point x="713" y="580" type="line"/>
      <point x="453" y="580" type="line"/>
    </contour>
    <contour>
      <point x="445" y="243" type="line"/>
      <point x="628" y="243"/>
      <point x="657" y="237"/>
      <point x="686" y="222" type="curve"/>
      <point x="686" y="379" type="line"/>
      <point x="656" y="363"/>
      <point x="628" y="357"/>
      <point x="445" y="357" type="curve"/>
    </contour>
    <contour>
      <point x="343" y="0" type="curve"/>
      <point x="534" y="0" type="line"/>
      <point x="516" y="35"/>
      <point x="507" y="81"/>
      <point x="507" y="299" type="curve" smooth="yes"/>
      <point x="507" y="502"/>
      <point x="516" y="545"/>
      <point x="534" y="580" type="curve"/>
      <point x="343" y="580" type="line"/>
      <point x="361" y="545"/>
      <point x="370" y="502"/>
      <point x="370" y="299" type="curve" smooth="yes"/>
      <point x="370" y="81"/>
      <point x="361" y="35"/>
    </contour>
    <contour>
      <point x="141" y="116" type="line"/>
      <point x="420" y="116" type="line"/>
      <point x="420" y="236" type="line"/>
      <point x="141" y="236" type="line"/>
    </contour>
    <contour>
      <point x="291" y="298" type="curve" smooth="yes"/>
      <point x="423" y="580" type="line"/>
      <point x="280" y="580" type="line"/>
      <point x="275" y="546"/>
      <point x="252" y="501"/>
      <point x="154" y="298" type="curve" smooth="yes"/>
      <point x="50" y="81"/>
      <point x="24" y="34"/>
      <point x="-5" y="0" type="curve"/>
      <point x="192" y="0" type="line"/>
      <point x="181" y="41"/>
      <point x="190" y="81"/>
    </contour>
  </outline>
</glyph>
<glyph name="eth" format="2">
  <advance width="627"/>
  <unicode hex="00F0"/>
  <outline>
    <contour>
      <point x="18" y="230" type="line"/>
      <point x="328" y="230" type="line"/>
      <point x="328" y="351" type="line"/>
      <point x="18" y="351" type="line"/>
    </contour>
    <component base="d" xOffset="10"/>
  </outline>
</glyph>
<glyph name="divide" format="2">
  <advance width="540"/>
  <unicode hex="00F7"/>
  <outline>
    <contour>
      <point x="40.0" y="247.0" type="line"/>
      <point x="500.0" y="247.0" type="line"/>
      <point x="500.0" y="374.0" type="line"/>
      <point x="40.0" y="374.0" type="line"/>
    </contour>
    <contour>
      <point x="196.0" y="45.0" type="line"/>
      <point x="347.0" y="45.0" type="line"/>
      <point x="347.0" y="196.0" type="line"/>
      <point x="196.0" y="196.0" type="line"/>
    </contour>
    <contour>
      <point x="344.0" y="576.0" type="line"/>
      <point x="193.0" y="576.0" type="line"/>
      <point x="193.0" y="425.0" type="line"/>
      <point x="344.0" y="425.0" type="line"/>
    </contour>
  </outline>
</glyph>
<glyph name="oslash" format="2">
  <advance width="638"/>
  <unicode hex="00F8"/>
  <anchor x="319" y="-15" name="below"/>
  <anchor x="310" y="600" name="above"/>
  <outline>
    <contour>
      <point x="80" y="-27" type="line"/>
      <point x="454" y="660" type="line"/>
      <point x="556" y="605" type="line"/>
      <point x="182" y="-82" type="line"/>
    </contour>
    <component base="o"/>
  </outline>
</glyph>
<glyph name="Hbar" format="2">
  <advance width="723"/>
  <unicode hex="0126"/>
  <outline>
    <contour>
      <point x="158" y="221" type="line"/>
      <point x="525" y="221" type="line"/>
      <point x="525" y="348" type="line"/>
      <point x="158" y="348" type="line"/>
    </contour>
    <contour>
      <point x="67" y="0" type="curve"/>
      <point x="264" y="0" type="line"/>
      <point x="244" y="40"/>
      <point x="237" y="95"/>
      <point x="237" y="349" type="curve" smooth="yes"/>
      <point x="237" y="589"/>
      <point x="244" y="641"/>
      <point x="264" y="680" type="curve"/>
      <point x="67" y="680" type="line"/>
      <point x="87" y="641"/>
      <point x="94" y="589"/>
      <point x="94" y="349" type="curve" smooth="yes"/>
      <point x="94" y="95"/>
      <point x="87" y="40"/>
    </contour>
    <contour>
      <point x="459" y="0" type="curve"/>
      <point x="656" y="0" type="line"/>
      <point x="636" y="40"/>
      <point x="629" y="95"/>
      <point x="629" y="349" type="curve" smooth="yes"/>
      <point x="629" y="589"/>
      <point x="636" y="641"/>
      <point x="656" y="680" type="curve"/>
      <point x="459" y="680" type="line"/>
      <point x="479" y="641"/>
      <point x="486" y="589"/>
      <point x="486" y="349" type="curve" smooth="yes"/>
      <point x="486" y="95"/>
      <point x="479" y="40"/>
    </contour>
    <contour>
      <point x="24.0" y="417.0" type="line"/>
      <point x="699.0" y="417.0" type="line"/>
      <point x="699.0" y="537.0" type="line"/>
      <point x="24.0" y="537.0" type="line"/>
    </contour>
  </outline>
</glyph>
<glyph name="Lslash" format="2">
  <advance width="504"/>
  <unicode hex="0141"/>
  <outline>
    <contour>
      <point x="14" y="272" type="line"/>
      <point x="359" y="372" type="line"/>
      <point x="359" y="507" type="line"/>
      <point x="14" y="407" type="line"/>
    </contour>
    <component base="L"/>
  </outline>
</glyph>
<glyph name="Eng" format="2">
  <advance width="699"/>
  <unicode hex="014A"/>
  <outline>
    <contour>
      <point x="482" y="349" type="line" smooth="yes"/>
      <point x="482" y="589"/>
      <point x="475" y="641"/>
      <point x="455" y="680" type="curve"/>
      <point x="642" y="680" type="line"/>
      <point x="622" y="641"/>
      <point x="615.0" y="589.0"/>
      <point x="615" y="349" type="curve" smooth="yes"/>
      <point x="615" y="9" type="line" smooth="yes"/>
      <point x="615" y="-159"/>
      <point x="517" y="-191"/>
      <point x="384" y="-166" type="curve"/>
      <point x="384" y="-38" type="line"/>
      <point x="438" y="-77"/>
      <point x="482.0" y="-58.0"/>
      <point x="482" y="-3" type="curve" smooth="yes"/>
    </contour>
    <contour>
      <point x="496" y="0" type="line"/>
      <point x="162" y="496" type="line"/>
      <point x="217" y="496" type="line"/>
      <point x="217" y="349" type="line" smooth="yes"/>
      <point x="217" y="95"/>
      <point x="224" y="40"/>
      <point x="244" y="0" type="curve"/>
      <point x="57" y="0" type="line"/>
      <point x="77" y="40"/>
      <point x="84" y="95"/>
      <point x="84" y="349" type="curve" smooth="yes"/>
      <point x="84" y="589"/>
      <point x="77" y="641"/>
      <point x="57" y="680" type="curve"/>
      <point x="213" y="680" type="line"/>
      <point x="538" y="195" type="line"/>
    </contour>
  </outline>
</glyph>
<glyph name="eng" format="2">
  <advance width="629"/>
  <unicode hex="014B"/>
  <outline>
    <contour>
      <point x="478" y="188" type="line"/>
      <point x="197" y="580" type="line"/>
      <point x="50" y="580" type="line"/>
      <point x="65" y="550"/>
      <point x="77" y="516"/>
      <point x="77" y="349" type="curve" smooth="yes"/>
      <point x="77" y="95"/>
      <point x="70" y="40"/>
      <point x="50" y="0" type="curve"/>
      <point x="231" y="0" type="line"/>
      <point x="211" y="40"/>
      <point x="204" y="95"/>
      <point x="204" y="349" type="curve" smooth="yes"/>
      <point x="204" y="396" type="line"/>
      <point x="158" y="403" type="line"/>
      <point x="442" y="0" type="line"/>
    </contour>
    <contour>
      <point x="552" y="349" type="line" smooth="yes"/>
      <point x="552.0" y="516.0"/>
      <point x="564" y="550"/>
      <point x="579" y="580" type="curve"/>
      <point x="398" y="580" type="line"/>
      <point x="413" y="550"/>
      <point x="425" y="516"/>
      <point x="425" y="349" type="curve" smooth="yes"/>
      <point x="425.0" y="-3.0" type="line" smooth="yes"/>
      <point x="425.0" y="-58.0"/>
      <point x="381.0" y="-77.0"/>
      <point x="327.0" y="-38.0" type="curve"/>
      <point x="327.0" y="-166.0" type="line"/>
      <point x="460.0" y="-191.0"/>
      <point x="552.0" y="-159.0"/>
      <point x="552" y="9" type="curve" smooth="yes"/>
    </contour>
  </outline>
</glyph>
<glyph name="oe" format="2">
  <advance width="810"/>
  <unicode hex="0153"/>
  <outline>
    <contour>
      <point x="339" y="119" type="line" smooth="yes"/>
      <point x="238" y="119"/>
      <point x="175" y="186"/>
      <point x="175" y="289" type="curve" smooth="yes"/>
      <point x="175" y="394"/>
      <point x="238" y="461"/>
      <point x="339" y="461" type="curve" smooth="yes"/>
      <point x="469" y="461" type="line"/>
      <point x="469" y="580" type="line"/>
      <point x="329" y="580" type="line" smooth="yes"/>
      <point x="156" y="580"/>
      <point x="29" y="466"/>
      <point x="29" y="289" type="curve" smooth="yes"/>
      <point x="29" y="114"/>
      <point x="156" y="0"/>
      <point x="329" y="0" type="curve" smooth="yes"/>
      <point x="469" y="0" type="line"/>
      <point x="469" y="119" type="line"/>
    </contour>
    <contour>
      <point x="510" y="120" type="curve"/>
      <point x="486" y="0" type="line"/>
      <point x="744" y="0" type="line"/>
      <point x="764" y="160" type="line"/>
      <point x="729" y="132"/>
      <point x="687" y="115"/>
    </contour>
    <contour>
      <point x="510" y="460" type="line"/>
      <point x="681" y="465"/>
      <point x="716" y="446"/>
      <point x="746" y="430" type="curve"/>
      <point x="746" y="580" type="line"/>
      <point x="486" y="580" type="line"/>
    </contour>
    <contour>
      <point x="478" y="243" type="line"/>
      <point x="661" y="243"/>
      <point x="690" y="237"/>
      <point x="719" y="222" type="curve"/>
      <point x="719" y="379" type="line"/>
      <point x="689" y="363"/>
      <point x="661" y="357"/>
      <point x="478" y="357" type="curve"/>
    </contour>
    <contour>
      <point x="376" y="0" type="curve"/>
      <point x="567" y="0" type="line"/>
      <point x="549" y="35"/>
      <point x="540" y="81"/>
      <point x="540" y="299" type="curve" smooth="yes"/>
      <point x="540" y="502"/>
      <point x="549" y="545"/>
      <point x="567" y="580" type="curve"/>
      <point x="376" y="580" type="line"/>
      <point x="394" y="545"/>
      <point x="403" y="502"/>
      <point x="403" y="299" type="curve" smooth="yes"/>
      <point x="403" y="81"/>
      <point x="394" y="35"/>
    </contour>
  </outline>
</glyph>
<glyph name="uogonek" format="2">
  <advance width="620"/>
  <unicode hex="0173"/>
  <outline>
    <contour>
      <point x="436" y="13" type="curve" smooth="yes"/>
      <point x="365" y="-21"/>
      <point x="321" y="-22"/>
      <point x="321" y="-59" type="curve" smooth="yes"/>
      <point x="321" y="-91"/>
      <point x="361" y="-96"/>
      <point x="418" y="-63" type="curve"/>
      <point x="408" y="-176" type="line"/>
      <point x="273" y="-222"/>
      <point x="193" y="-174"/>
      <point x="193" y="-95" type="curve" smooth="yes"/>
      <point x="193" y="-36"/>
      <point x="229" y="13"/>
      <point x="359" y="50" type="curve"/>
      <point x="310" y="-16" type="line"/>
      <point x="167" y="-16"/>
      <point x="67" y="66"/>
      <point x="67" y="203" type="curve" smooth="yes"/>
      <point x="67" y="299" type="line" smooth="yes"/>
      <point x="67" y="503"/>
      <point x="58" y="546"/>
      <point x="40" y="580" type="curve"/>
      <point x="231" y="580" type="line"/>
      <point x="213" y="546"/>
      <point x="204" y="503"/>
      <point x="204" y="299" type="curve" smooth="yes"/>
      <point x="204" y="224" type="line" smooth="yes"/>
      <point x="204" y="157"/>
      <point x="245" y="113"/>
      <point x="310" y="113" type="curve" smooth="yes"/>
      <point x="375" y="113"/>
      <point x="416" y="157"/>
      <point x="416" y="224" type="curve" smooth="yes"/>
      <point x="416" y="299" type="line" smooth="yes"/>
      <point x="416" y="503"/>
      <point x="407" y="546"/>
      <point x="389" y="580" type="curve"/>
      <point x="580" y="580" type="line"/>
      <point x="562" y="546"/>
      <point x="553" y="503"/>
      <point x="553" y="299" type="curve" smooth="yes"/>
      <point x="553" y="203" type="line" smooth="yes"/>
      <point x="553" y="112"/>
      <point x="509" y="48"/>
    </contour>
  </outline>
</glyph>
<glyph name="Schwa" format="2">
  <advance width="682"/>
  <unicode hex="018F"/>
  <outline>
    <contour>
      <point x="176" y="323" type="line"/>
      <point x="176" y="183"/>
      <point x="240" y="116"/>
      <point x="328" y="116" type="curve" smooth="yes"/>
      <point x="420" y="116"/>
      <point x="493" y="186"/>
      <point x="493" y="344" type="curve" smooth="yes"/>
      <point x="493" y="586"/>
      <point x="307" y="620"/>
      <point x="84" y="500" type="curve"/>
      <point x="84" y="644" type="line"/>
      <point x="380" y="771"/>
      <point x="645" y="648"/>
      <point x="645" y="341" type="curve" smooth="yes"/>
      <point x="645" y="138"/>
      <point x="514" y="-16"/>
      <point x="329" y="-16" type="curve" smooth="yes"/>
      <point x="119" y="-16"/>
      <point x="2" y="178"/>
      <point x="46" y="410" type="curve"/>
      <point x="513" y="410" type="line"/>
      <point x="513" y="289" type="line"/>
      <point x="149" y="289" type="line"/>
    </contour>
  </outline>
</glyph>
<glyph name="Oogonek" format="2">
  <advance width="740"/>
  <unicode hex="01EA"/>
  <outline>
    <contour>
      <point x="370" y="115" type="curve" smooth="yes"/>
      <point x="262" y="115"/>
      <point x="189" y="201"/>
      <point x="189" y="341" type="curve" smooth="yes"/>
      <point x="189" y="481"/>
      <point x="262" y="565"/>
      <point x="370" y="565" type="curve" smooth="yes"/>
      <point x="478" y="565"/>
      <point x="551" y="480"/>
      <point x="551" y="341" type="curve" smooth="yes"/>
      <point x="551" y="201"/>
      <point x="478" y="115"/>
    </contour>
    <contour>
      <point x="414" y="50" type="line"/>
      <point x="284" y="13"/>
      <point x="248" y="-36"/>
      <point x="248" y="-95" type="curve" smooth="yes"/>
      <point x="248" y="-174"/>
      <point x="328" y="-222"/>
      <point x="463" y="-176" type="curve"/>
      <point x="473" y="-63" type="line"/>
      <point x="416" y="-96"/>
      <point x="376" y="-91"/>
      <point x="376" y="-59" type="curve" smooth="yes"/>
      <point x="376.0" y="-22.0"/>
      <point x="424.0" y="-18.0"/>
      <point x="496.0" y="13.0" type="curve" smooth="yes"/>
      <point x="620" y="66"/>
      <point x="703" y="186"/>
      <point x="703" y="341" type="curve" smooth="yes"/>
      <point x="703.0" y="546.0"/>
      <point x="564" y="692"/>
      <point x="370" y="692" type="curve" smooth="yes"/>
      <point x="175" y="692"/>
      <point x="37" y="546"/>
      <point x="37" y="341" type="curve" smooth="yes"/>
      <point x="37" y="135"/>
      <point x="175" y="-12"/>
      <point x="370" y="-12" type="curve"/>
    </contour>
  </outline>
</glyph>
<glyph name="schwa" format="2">
  <advance width="593"/>
  <unicode hex="0259"/>
  <outline>
    <contour>
      <point x="170" y="278" type="line"/>
      <point x="170" y="165"/>
      <point x="220" y="111"/>
      <point x="288" y="111" type="curve" smooth="yes"/>
      <point x="360" y="111"/>
      <point x="418" y="168"/>
      <point x="418" y="295" type="curve" smooth="yes"/>
      <point x="418" y="485"/>
      <point x="261" y="513"/>
      <point x="76" y="417" type="curve"/>
      <point x="76" y="551" type="line"/>
      <point x="336" y="662"/>
      <point x="564" y="555"/>
      <point x="564" y="293" type="curve" smooth="yes"/>
      <point x="564" y="120"/>
      <point x="450" y="-12"/>
      <point x="289" y="-12" type="curve" smooth="yes"/>
      <point x="106" y="-12"/>
      <point x="4" y="159"/>
      <point x="43" y="357" type="curve"/>
      <point x="449" y="357" type="line"/>
      <point x="449" y="243" type="line"/>
      <point x="132" y="243" type="line"/>
    </contour>
  </outline>
</glyph>
<glyph name="verticallinemod" format="2">
  <advance width="300"/>
  <unicode hex="02C8"/>
  <outline>
    <contour>
      <point x="114.0" y="398.0" type="line"/>
      <point x="187.0" y="398.0" type="line"/>
      <point x="217.0" y="680.0" type="line"/>
      <point x="84.0" y="680.0" type="line"/>
    </contour>
  </outline>
</glyph>
<glyph name="verticallinelowmod" format="2">
  <advance width="300"/>
  <unicode hex="02CC"/>
  <outline>
    <contour>
      <point x="114.0" y="-160.0" type="line"/>
      <point x="187.0" y="-160.0" type="line"/>
      <point x="217.0" y="122.0" type="line"/>
      <point x="84.0" y="122.0" type="line"/>
    </contour>
  </outline>
</glyph>
<glyph name="gravecmb" format="2">
  <unicode hex="0300"/>
  <anchor x="0" y="517" name="_above"/>
  <anchor x="0" y="728" name="above"/>
  <anchor x="0" y="517" name="_aboveright"/>
  <outline>
    <contour>
      <point x="73" y="580" type="line"/>
      <point x="-60" y="580" type="line"/>
      <point x="-181" y="747" type="line"/>
      <point x="-25" y="747" type="line"/>
    </contour>
  </outline>
</glyph>
<glyph name="circumflexcmb" format="2">
  <unicode hex="0302"/>
  <anchor x="0" y="517" name="_above"/>
  <anchor x="0" y="718" name="above"/>
  <anchor x="154" y="670" name="aboveright"/>
  <outline>
    <contour>
      <point x="15" y="642" type="line"/>
      <point x="-51" y="580" type="line"/>
      <point x="-200" y="580" type="line"/>
      <point x="2" y="761" type="line"/>
      <point x="202" y="580" type="line"/>
      <point x="53" y="580" type="line"/>
      <point x="-13" y="642" type="line"/>
    </contour>
  </outline>
</glyph>
<glyph name="dotaccentcmb" format="2">
  <unicode hex="0307"/>
  <anchor x="0" y="517" name="_above"/>
  <anchor x="0" y="744" name="above"/>
  <outline>
    <contour>
      <point x="-81.0" y="587.0" type="line"/>
      <point x="80.0" y="587.0" type="line"/>
      <point x="80.0" y="748.0" type="line"/>
      <point x="-81.0" y="748.0" type="line"/>
    </contour>
  </outline>
</glyph>
<glyph name="caroncmb" format="2">
  <unicode hex="030C"/>
  <anchor x="0" y="517" name="_above"/>
  <anchor x="0" y="728" name="above"/>
  <outline>
    <contour>
      <point x="-12" y="685" type="line"/>
      <point x="54" y="747" type="line"/>
      <point x="203" y="747" type="line"/>
      <point x="1" y="566" type="line"/>
      <point x="-199" y="747" type="line"/>
      <point x="-50" y="747" type="line"/>
      <point x="16" y="685" type="line"/>
    </contour>
  </outline>
</glyph>
<glyph name="commaturnedabovecmb" format="2">
  <unicode hex="0312"/>
  <anchor x="0" y="517" name="_above"/>
  <anchor x="0" y="725" name="above"/>
  <outline>
    <contour>
      <point x="68.0" y="580.0" type="curve"/>
      <point x="-89.0" y="580.0" type="line"/>
      <point x="-96.0" y="663.0"/>
      <point x="-55.0" y="757.0"/>
      <point x="103.0" y="771.0" type="curve"/>
      <point x="53.0" y="699.0"/>
      <point x="52.0" y="641.0"/>
    </contour>
  </outline>
</glyph>
<glyph name="dotbelowcmb" format="2">
  <unicode hex="0323"/>
  <anchor x="0" y="0" name="_below"/>
  <anchor x="0" y="-211" name="below"/>
  <outline>
    <contour>
      <point x="-81.0" y="-221.0" type="line"/>
      <point x="80.0" y="-221.0" type="line"/>
      <point x="80.0" y="-60.0" type="line"/>
      <point x="-81.0" y="-60.0" type="line"/>
    </contour>
  </outline>
</glyph>
<glyph name="dieresisbelowcmb" format="2">
  <unicode hex="0324"/>
  <anchor x="0" y="0" name="_below"/>
  <anchor x="0" y="-211" name="below"/>
  <outline>
    <contour>
      <point x="-200.0" y="-221.0" type="line"/>
      <point x="-39.0" y="-221.0" type="line"/>
      <point x="-39.0" y="-60.0" type="line"/>
      <point x="-200.0" y="-60.0" type="line"/>
    </contour>
    <contour>
      <point x="40.0" y="-221.0" type="line"/>
      <point x="201.0" y="-221.0" type="line"/>
      <point x="201.0" y="-60.0" type="line"/>
      <point x="40.0" y="-60.0" type="line"/>
    </contour>
  </outline>
</glyph>
<glyph name="cedillacmb" format="2">
  <unicode hex="0327"/>
  <anchor x="-3" y="0" name="_below"/>
  <anchor x="-3" y="-230" name="below"/>
  <outline>
    <contour>
      <point x="28.0" y="27" type="curve"/>
      <point x="-72.0" y="18" type="line"/>
      <point x="-72.0" y="-106"/>
      <point x="16.0" y="-85"/>
      <point x="16.0" y="-132" type="curve" smooth="yes"/>
      <point x="16.0" y="-172"/>
      <point x="-49.0" y="-165"/>
      <point x="-126.0" y="-107" type="curve"/>
      <point x="-126.0" y="-220" type="line"/>
      <point x="25.0" y="-267"/>
      <point x="129.0" y="-228"/>
      <point x="129.0" y="-126" type="curve" smooth="yes"/>
      <point x="129.0" y="-30"/>
      <point x="20.0" y="-52"/>
    </contour>
  </outline>
</glyph>
<glyph name="ogonekcmb" format="2">
  <unicode hex="0328"/>
  <anchor x="0" y="0" name="_below"/>
  <anchor x="113" y="21" name="ogonek"/>
  <anchor x="0" y="-171" name="below"/>
  <outline>
    <contour>
      <point x="54" y="68" type="line"/>
      <point x="-76" y="31"/>
      <point x="-112" y="-18"/>
      <point x="-112" y="-77" type="curve" smooth="yes"/>
      <point x="-112" y="-156"/>
      <point x="-32" y="-204"/>
      <point x="103" y="-158" type="curve"/>
      <point x="113" y="-45" type="line"/>
      <point x="56" y="-78"/>
      <point x="16" y="-73"/>
      <point x="16" y="-41" type="curve" smooth="yes"/>
      <point x="16" y="-14"/>
      <point x="47" y="1"/>
      <point x="113" y="21" type="curve"/>
    </contour>
  </outline>
</glyph>
<glyph name="macronbelowcmb" format="2">
  <unicode hex="0331"/>
  <anchor x="0" y="0" name="_below"/>
  <anchor x="0" y="-183" name="below"/>
  <outline>
    <contour>
      <point x="-166.0" y="-184.0" type="line"/>
      <point x="167.0" y="-184.0" type="line"/>
      <point x="167.0" y="-63.0" type="line"/>
      <point x="-166.0" y="-63.0" type="line"/>
    </contour>
  </outline>
</glyph>
<glyph name="quotedblleft" format="2">
  <advance width="499"/>
  <unicode hex="201C"/>
  <outline>
    <contour>
      <point x="214" y="399" type="curve"/>
      <point x="47" y="399" type="line"/>
      <point x="37" y="510"/>
      <point x="87" y="640"/>
      <point x="249" y="690" type="curve"/>
      <point x="191" y="571"/>
      <point x="190" y="488"/>
    </contour>
    <contour>
      <point x="439" y="399" type="curve"/>
      <point x="272" y="399" type="line"/>
      <point x="262" y="510"/>
      <point x="312" y="640"/>
      <point x="474" y="690" type="curve"/>
      <point x="416" y="571"/>
      <point x="415" y="488"/>
    </contour>
  </outline>
</glyph>
<glyph name="quotedblright" format="2">
  <advance width="499"/>
  <unicode hex="201D"/>
  <outline>
    <contour>
      <point x="285" y="680" type="curve"/>
      <point x="452" y="680" type="line"/>
      <point x="462" y="569"/>
      <point x="412" y="439"/>
      <point x="250" y="389" type="curve"/>
      <point x="308" y="508"/>
      <point x="309" y="591"/>
    </contour>
    <contour>
      <point x="60" y="680" type="curve"/>
      <point x="227" y="680" type="line"/>
      <point x="237" y="569"/>
      <point x="187" y="439"/>
      <point x="25" y="389" type="curve"/>
      <point x="83" y="508"/>
      <point x="84" y="591"/>
    </contour>
  </outline>
</glyph>
<glyph name="bullet" format="2">
  <advance width="568"/>
  <unicode hex="2022"/>
  <outline>
    <contour>
      <point x="118" y="473" type="curve"/>
      <point x="125" y="447"/>
      <point x="133" y="376"/>
      <point x="133" y="307.0" type="curve" smooth="yes"/>
      <point x="133" y="238"/>
      <point x="125" y="168"/>
      <point x="118" y="141" type="curve"/>
      <point x="145" y="148"/>
      <point x="215" y="156"/>
      <point x="284.0" y="156" type="curve" smooth="yes"/>
      <point x="353" y="156"/>
      <point x="424" y="148"/>
      <point x="450" y="141" type="curve"/>
      <point x="443" y="168"/>
      <point x="435" y="238"/>
      <point x="435" y="307.0" type="curve" smooth="yes"/>
      <point x="435" y="376"/>
      <point x="443" y="447"/>
      <point x="450" y="473" type="curve"/>
      <point x="424" y="466"/>
      <point x="353" y="458"/>
      <point x="284.0" y="458" type="curve" smooth="yes"/>
      <point x="215" y="458"/>
      <point x="145" y="466"/>
    </contour>
  </outline>
</glyph>
<glyph name="commercialminussign" format="2">
  <advance width="544"/>
  <unicode hex="2052"/>
  <outline>
    <contour>
      <point x="15" y="0" type="line"/>
      <point x="133" y="0" type="line"/>
      <point x="529" y="680" type="line"/>
      <point x="411" y="680" type="line"/>
    </contour>
    <contour>
      <point x="58" y="452" type="line"/>
      <point x="219" y="452" type="line"/>
      <point x="219" y="613" type="line"/>
      <point x="58" y="613" type="line"/>
    </contour>
    <contour>
      <point x="486.0" y="67.0" type="line"/>
      <point x="486.0" y="228.0" type="line"/>
      <point x="325.0" y="228.0" type="line"/>
      <point x="325.0" y="67.0" type="line"/>
    </contour>
  </outline>
</glyph>
<glyph name="franc" format="2">
  <advance width="543"/>
  <unicode hex="20A3"/>
  <outline>
    <contour>
      <point x="20.0" y="102.0" type="line"/>
      <point x="403.0" y="102.0" type="line"/>
      <point x="403.0" y="223.0" type="line"/>
      <point x="20.0" y="223.0" type="line"/>
    </contour>
    <contour>
      <point x="57" y="0" type="curve"/>
      <point x="254" y="0" type="line"/>
      <point x="234" y="40"/>
      <point x="227" y="95"/>
      <point x="227" y="349" type="curve" smooth="yes"/>
      <point x="227" y="589"/>
      <point x="234" y="641"/>
      <point x="254" y="680" type="curve"/>
      <point x="57" y="680" type="line"/>
      <point x="77" y="641"/>
      <point x="84" y="589"/>
      <point x="84" y="349" type="curve" smooth="yes"/>
      <point x="84" y="95"/>
      <point x="77" y="40"/>
    </contour>
    <contour>
      <point x="190" y="554" type="line"/>
      <point x="397" y="560"/>
      <point x="441" y="542"/>
      <point x="476" y="524" type="curve"/>
      <point x="476" y="680" type="line"/>
      <point x="166" y="680" type="line"/>
    </contour>
    <contour>
      <point x="158" y="300" type="line"/>
      <point x="379" y="300"/>
      <point x="415" y="296"/>
      <point x="449" y="279" type="curve"/>
      <point x="449" y="442" type="line"/>
      <point x="415" y="424"/>
      <point x="379" y="420"/>
      <point x="158" y="420" type="curve"/>
    </contour>
  </outline>
</glyph>
<glyph name="won" format="2">
  <advance width="711"/>
  <unicode hex="20A9"/>
  <outline>
    <contour>
      <point x="419" y="680" type="line"/>
      <point x="291" y="680" type="line"/>
      <point x="172" y="0" type="line"/>
      <point x="290" y="0" type="line"/>
    </contour>
    <contour>
      <point x="208" y="680" type="line"/>
      <point x="45" y="680" type="line"/>
      <point x="133" y="0" type="line"/>
      <point x="286" y="0" type="line"/>
    </contour>
    <contour>
      <point x="292" y="680" type="line"/>
      <point x="429" y="0" type="line"/>
      <point x="556" y="0" type="line"/>
      <point x="429" y="680" type="line"/>
    </contour>
    <contour>
      <point x="515" y="680" type="line"/>
      <point x="438" y="0" type="line"/>
      <point x="578" y="0" type="line"/>
      <point x="666" y="680" type="line"/>
    </contour>
    <contour>
      <point x="15" y="405" type="line"/>
      <point x="15" y="300" type="line"/>
      <point x="173" y="300" type="line"/>
      <point x="173" y="405" type="line"/>
    </contour>
    <contour>
      <point x="552" y="300" type="line"/>
      <point x="696" y="300" type="line"/>
      <point x="696" y="405" type="line"/>
      <point x="552" y="405" type="line"/>
    </contour>
  </outline>
</glyph>
<glyph name="dong" format="2">
  <advance width="528"/>
  <unicode hex="20AB"/>
  <outline>
    <contour>
      <point x="312" y="140" type="line"/>
      <point x="312" y="251" type="line"/>
      <point x="360" y="321" type="line"/>
      <point x="312" y="361" type="line"/>
      <point x="312" y="680" type="line"/>
      <point x="448" y="680" type="line"/>
      <point x="448" y="140" type="line"/>
    </contour>
    <contour>
      <point x="251" y="233" type="curve" smooth="yes"/>
      <point x="290" y="233"/>
      <point x="316" y="268"/>
      <point x="316" y="319" type="curve" smooth="yes"/>
      <point x="316" y="370"/>
      <point x="290" y="404"/>
      <point x="251" y="404" type="curve" smooth="yes"/>
      <point x="211" y="404"/>
      <point x="186" y="371"/>
      <point x="186" y="319" type="curve" smooth="yes"/>
      <point x="186" y="266"/>
      <point x="210" y="233"/>
    </contour>
    <contour>
      <point x="380" y="377" type="curve"/>
      <point x="380" y="263" type="line"/>
      <point x="380" y="193"/>
      <point x="313" y="136"/>
      <point x="229" y="136" type="curve" smooth="yes"/>
      <point x="132" y="136"/>
      <point x="50" y="204"/>
      <point x="50" y="319" type="curve" smooth="yes"/>
      <point x="50" y="436"/>
      <point x="132" y="501"/>
      <point x="228" y="501" type="curve" smooth="yes"/>
      <point x="313" y="501"/>
      <point x="380" y="446"/>
    </contour>
    <contour>
      <point x="498" y="542" type="line"/>
      <point x="218" y="542" type="line"/>
      <point x="218" y="630" type="line"/>
      <point x="498" y="630" type="line"/>
    </contour>
    <contour>
      <point x="478" y="0" type="line"/>
      <point x="40" y="0" type="line"/>
      <point x="40" y="93" type="line"/>
      <point x="478" y="93" type="line"/>
    </contour>
  </outline>
</glyph>
<glyph name="Euro" format="2">
  <advance width="621"/>
  <unicode hex="20AC"/>
  <outline>
    <contour>
      <point x="35" y="368" type="line"/>
      <point x="467" y="368" type="line"/>
      <point x="478" y="463" type="line"/>
      <point x="35" y="463" type="line"/>
    </contour>
    <contour>
      <point x="35" y="218" type="line"/>
      <point x="448" y="218" type="line"/>
      <point x="459" y="313" type="line"/>
      <point x="35" y="313" type="line"/>
    </contour>
    <contour>
      <point x="96" y="340" type="curve" smooth="yes"/>
      <point x="96" y="135"/>
      <point x="221" y="-8"/>
      <point x="424" y="-8" type="curve" smooth="yes"/>
      <point x="472" y="-8"/>
      <point x="519" y="-1"/>
      <point x="561" y="14" type="curve"/>
      <point x="561" y="170" type="line"/>
      <point x="519" y="138"/>
      <point x="466" y="115"/>
      <point x="413" y="115" type="curve" smooth="yes"/>
      <point x="311" y="115"/>
      <point x="241" y="200"/>
      <point x="241" y="340" type="curve" smooth="yes"/>
      <point x="241" y="480"/>
      <point x="311" y="565"/>
      <point x="413" y="565" type="curve" smooth="yes"/>
      <point x="466" y="565"/>
      <point x="519" y="542"/>
      <point x="561" y="510" type="curve"/>
      <point x="561" y="666" type="line"/>
      <point x="519" y="681"/>
      <point x="472" y="688"/>
      <point x="424" y="688" type="curve" smooth="yes"/>
      <point x="221" y="688"/>
      <point x="96" y="545"/>
    </contour>
  </outline>
</glyph>
<glyph name="guarani" format="2">
  <advance width="518"/>
  <unicode hex="20B2"/>
  <outline>
    <contour>
      <point x="244" y="590.0" type="line"/>
      <point x="256" y="770.0" type="line"/>
      <point x="385" y="770.0" type="line"/>
      <point x="373" y="590.0" type="line"/>
    </contour>
    <contour>
      <point x="199" y="-100.0" type="line"/>
      <point x="212" y="79.0" type="line"/>
      <point x="341" y="79.0" type="line"/>
      <point x="328" y="-100.0" type="line"/>
    </contour>
    <contour>
      <point x="495" y="71" type="curve"/>
      <point x="430.0" y="33.0"/>
      <point x="375.0" y="16.0"/>
      <point x="310" y="16" type="curve" smooth="yes"/>
      <point x="140.0" y="16.0"/>
      <point x="31.0" y="153.3042071197411"/>
      <point x="31" y="335" type="curve" smooth="yes"/>
      <point x="31.0" y="526.8490566037735"/>
      <point x="148.00000000000003" y="663.0"/>
      <point x="316" y="663" type="curve" smooth="yes"/>
      <point x="376.0" y="663.0"/>
      <point x="426.0" y="648.0"/>
      <point x="479" y="623" type="curve"/>
      <point x="479" y="468" type="line"/>
      <point x="427.0" y="512.0"/>
      <point x="374.0" y="540.0"/>
      <point x="319" y="540.0" type="curve" smooth="yes"/>
      <point x="230.0" y="540.0"/>
      <point x="177.0" y="465.22340425531917"/>
      <point x="177" y="342" type="curve" smooth="yes"/>
      <point x="177.0" y="217.75661375661377"/>
      <point x="232.0" y="143.0"/>
      <point x="320" y="143" type="curve" smooth="yes"/>
      <point x="376.0" y="143.0"/>
      <point x="426.0" y="173.0"/>
      <point x="479" y="220" type="curve"/>
      <point x="365" y="95" type="line"/>
      <point x="361.87808273530715" y="280.2337577051084"/>
      <point x="352.53370533168817" y="319.026772630451"/>
      <point x="335" y="351" type="curve"/>
      <point x="507" y="351" type="line"/>
      <point x="499.753104588354" y="318.90660603413926"/>
      <point x="493.96296390982707" y="274.2590736738964"/>
    </contour>
  </outline>
</glyph>
<glyph name="turkishlira" format="2">
  <advance width="538"/>
  <unicode hex="20BA"/>
  <outline>
    <contour>
      <point x="368" y="274" type="line"/>
      <point x="388" y="197"/>
      <point x="371" y="132"/>
      <point x="298" y="132" type="curve" smooth="yes"/>
      <point x="155" y="132" type="line"/>
      <point x="155" y="0" type="line"/>
      <point x="282" y="0" type="line" smooth="yes"/>
      <point x="441" y="0"/>
      <point x="513" y="91"/>
      <point x="513" y="274" type="curve"/>
    </contour>
    <contour>
      <point x="47" y="403" type="line"/>
      <point x="421" y="503" type="line"/>
      <point x="421" y="608" type="line"/>
      <point x="47" y="508" type="line"/>
    </contour>
    <contour>
      <point x="47" y="253" type="line"/>
      <point x="421" y="353" type="line"/>
      <point x="421" y="458" type="line"/>
      <point x="47" y="358" type="line"/>
    </contour>
    <contour>
      <point x="245" y="349" type="line" smooth="yes"/>
      <point x="245" y="589"/>
      <point x="252" y="641"/>
      <point x="272" y="680" type="curve"/>
      <point x="75" y="680" type="line"/>
      <point x="95" y="641"/>
      <point x="102" y="589"/>
      <point x="102" y="349" type="curve" smooth="yes"/>
      <point x="102" y="0" type="line"/>
      <point x="245" y="0" type="line"/>
    </contour>
  </outline>
</glyph>
<glyph name="trademark" format="2">
  <advance width="816"/>
  <unicode hex="2122"/>
  <outline>
    <contour>
      <point x="168" y="600" type="curve" smooth="yes"/>
      <point x="259" y="600"/>
      <point x="292" y="592"/>
      <point x="312" y="582" type="curve"/>
      <point x="312" y="680" type="line"/>
      <point x="25" y="680" type="line"/>
      <point x="25" y="582" type="line"/>
      <point x="44" y="593"/>
      <point x="78" y="600"/>
    </contour>
    <contour>
      <point x="108" y="340" type="curve"/>
      <point x="230" y="340" type="line"/>
      <point x="219" y="360"/>
      <point x="214" y="387"/>
      <point x="214" y="515" type="curve" smooth="yes"/>
      <point x="214" y="634"/>
      <point x="219" y="659"/>
      <point x="230" y="680" type="curve"/>
      <point x="108" y="680" type="line"/>
      <point x="118" y="659"/>
      <point x="123" y="634"/>
      <point x="123" y="515" type="curve" smooth="yes"/>
      <point x="123" y="387"/>
      <point x="118" y="360"/>
    </contour>
    <contour>
      <point x="346" y="340" type="curve"/>
      <point x="459" y="340" type="line"/>
      <point x="449" y="360"/>
      <point x="444" y="387"/>
      <point x="444" y="515" type="curve" smooth="yes"/>
      <point x="444" y="634"/>
      <point x="449" y="659"/>
      <point x="459" y="680" type="curve"/>
      <point x="346" y="680" type="line"/>
      <point x="356" y="659"/>
      <point x="362" y="634"/>
      <point x="362" y="515" type="curve" smooth="yes"/>
      <point x="362" y="387"/>
      <point x="356" y="360"/>
    </contour>
    <contour>
      <point x="671" y="340" type="curve"/>
      <point x="788" y="340" type="line"/>
      <point x="777" y="360"/>
      <point x="772" y="387"/>
      <point x="772" y="515" type="curve" smooth="yes"/>
      <point x="772" y="634"/>
      <point x="777" y="659"/>
      <point x="788" y="680" type="curve"/>
      <point x="671" y="680" type="line"/>
      <point x="682" y="659"/>
      <point x="687" y="634"/>
      <point x="687" y="515" type="curve" smooth="yes"/>
      <point x="687" y="387"/>
      <point x="682" y="360"/>
    </contour>
    <contour>
      <point x="585" y="505" type="curve" smooth="yes"/>
      <point x="530" y="340" type="line"/>
      <point x="612" y="340" type="line"/>
      <point x="612" y="359"/>
      <point x="621" y="385"/>
      <point x="662" y="505" type="curve" smooth="yes"/>
      <point x="705" y="634"/>
      <point x="717" y="658"/>
      <point x="733" y="680" type="curve"/>
      <point x="629" y="680" type="line"/>
      <point x="630" y="655"/>
      <point x="628" y="633"/>
    </contour>
    <contour>
      <point x="552" y="505" type="line" smooth="yes"/>
      <point x="513" y="633"/>
      <point x="508" y="655"/>
      <point x="510" y="680" type="curve"/>
      <point x="398" y="680" type="line"/>
      <point x="413" y="659"/>
      <point x="424" y="634"/>
      <point x="467" y="505" type="curve" smooth="yes"/>
      <point x="507" y="385"/>
      <point x="513" y="359"/>
      <point x="515" y="340" type="curve"/>
      <point x="602" y="340" type="line"/>
    </contour>
  </outline>
</glyph>
<glyph name="arrowleft" format="2">
  <advance width="675"/>
  <unicode hex="2190"/>
  <outline>
    <contour>
      <point x="258" y="303" type="curve"/>
      <point x="311.1571230259525" y="392.5795962104014"/>
      <point x="370.7360145085916" y="501.12224824106715"/>
      <point x="411" y="635" type="curve"/>
      <point x="289" y="499"/>
      <point x="160" y="399"/>
      <point x="5" y="303" type="curve"/>
      <point x="160" y="207"/>
      <point x="289" y="107"/>
      <point x="411" y="-29" type="curve"/>
      <point x="370.73601450859167" y="104.87775175893282"/>
      <point x="311.1571230259525" y="213.42040378959857"/>
    </contour>
    <contour>
      <point x="115" y="251" type="line"/>
      <point x="343" y="251.0"/>
      <point x="532" y="241.0"/>
      <point x="650" y="221" type="curve"/>
      <point x="650" y="396" type="line"/>
      <point x="532" y="376.0"/>
      <point x="343" y="366.0"/>
      <point x="115" y="366" type="curve"/>
    </contour>
  </outline>
</glyph>
<glyph name="arrowup" format="2">
  <advance width="676"/>
  <unicode hex="2191"/>
  <outline>
    <contour>
      <point x="338.0" y="392.0" type="curve"/>
      <point x="428.0" y="339.0"/>
      <point x="536.0" y="279.0"/>
      <point x="670.0" y="239.0" type="curve"/>
      <point x="534.0" y="361.0"/>
      <point x="434.0" y="490.0"/>
      <point x="338.0" y="645.0" type="curve"/>
      <point x="242.0" y="490.0"/>
      <point x="142.0" y="361.0"/>
      <point x="6.0" y="239.0" type="curve"/>
      <point x="140.0" y="279.0"/>
      <point x="248.0" y="339.0"/>
    </contour>
    <contour>
      <point x="390.0" y="535.0" type="curve"/>
      <point x="275.0" y="535.0" type="line"/>
      <point x="275.0" y="309.0"/>
      <point x="265.0" y="118.0"/>
      <point x="245.0" y="0.0" type="curve"/>
      <point x="420.0" y="0.0" type="line"/>
      <point x="400.0" y="118.0"/>
      <point x="390.0" y="307.0"/>
    </contour>
  </outline>
</glyph>
<glyph name="arrowright" format="2">
  <advance width="675"/>
  <unicode hex="2192"/>
  <outline>
    <contour>
      <point x="417" y="303" type="curve"/>
      <point x="364" y="213"/>
      <point x="304" y="105"/>
      <point x="264" y="-29" type="curve"/>
      <point x="386" y="107"/>
      <point x="515" y="207"/>
      <point x="670" y="303" type="curve"/>
      <point x="515" y="399"/>
      <point x="386" y="499"/>
      <point x="264" y="635" type="curve"/>
      <point x="304" y="501"/>
      <point x="364" y="393"/>
    </contour>
    <contour>
      <point x="560" y="251" type="curve"/>
      <point x="560" y="366" type="line"/>
      <point x="332" y="366"/>
      <point x="143" y="376"/>
      <point x="25" y="396" type="curve"/>
      <point x="25" y="221" type="line"/>
      <point x="143" y="241"/>
      <point x="332" y="251"/>
    </contour>
  </outline>
</glyph>
<glyph name="arrowdown" format="2">
  <advance width="676"/>
  <unicode hex="2193"/>
  <outline>
    <contour>
      <point x="338.0" y="244.0" type="curve"/>
      <point x="248.0" y="297.0"/>
      <point x="140.0" y="357.0"/>
      <point x="6.0" y="397.0" type="curve"/>
      <point x="142.0" y="275.0"/>
      <point x="242.0" y="146.0"/>
      <point x="338.0" y="-9.0" type="curve"/>
      <point x="434.0" y="146.0"/>
      <point x="534.0" y="275.0"/>
      <point x="670.0" y="397.0" type="curve"/>
      <point x="536.0" y="357.0"/>
      <point x="428.0" y="297.0"/>
    </contour>
    <contour>
      <point x="390.0" y="101.0" type="line"/>
      <point x="390.0" y="329.0"/>
      <point x="400.0" y="518.0"/>
      <point x="420.0" y="636.0" type="curve"/>
      <point x="245.0" y="636.0" type="line"/>
      <point x="265.0" y="518.0"/>
      <point x="275.0" y="327.0"/>
      <point x="275.0" y="101.0" type="curve"/>
    </contour>
  </outline>
</glyph>
<glyph name="arrowNW" format="2">
  <advance width="636"/>
  <unicode hex="2196"/>
  <outline>
    <contour>
      <point x="246" y="400" type="curve"/>
      <point x="347" y="426"/>
      <point x="466" y="460"/>
      <point x="589" y="527" type="curve"/>
      <point x="406" y="517"/>
      <point x="244" y="537"/>
      <point x="67" y="579" type="curve"/>
      <point x="109" y="402"/>
      <point x="129" y="240"/>
      <point x="119" y="57" type="curve"/>
      <point x="186" y="180"/>
      <point x="220" y="299"/>
    </contour>
    <contour>
      <point x="182" y="538" type="curve"/>
      <point x="100" y="457" type="line"/>
      <point x="261" y="295"/>
      <point x="398" y="145"/>
      <point x="467" y="47" type="curve"/>
      <point x="591" y="171" type="line"/>
      <point x="493" y="240"/>
      <point x="343" y="377"/>
    </contour>
  </outline>
</glyph>
<glyph name="arrowNE" format="2">
  <advance width="636"/>
  <unicode hex="2197"/>
  <outline>
    <contour>
      <point x="390" y="400" type="curve"/>
      <point x="416" y="299"/>
      <point x="450" y="180"/>
      <point x="517" y="57" type="curve"/>
      <point x="507" y="240"/>
      <point x="527" y="402"/>
      <point x="569" y="579" type="curve"/>
      <point x="392" y="537"/>
      <point x="230" y="517"/>
      <point x="47" y="527" type="curve"/>
      <point x="170" y="460"/>
      <point x="289" y="426"/>
    </contour>
    <contour>
      <point x="454" y="538" type="line"/>
      <point x="293" y="377"/>
      <point x="143" y="240"/>
      <point x="45" y="171" type="curve"/>
      <point x="169" y="47" type="line"/>
      <point x="238" y="145"/>
      <point x="375" y="295"/>
      <point x="536" y="457" type="curve"/>
    </contour>
  </outline>
</glyph>
<glyph name="arrowSE" format="2">
  <advance width="636"/>
  <unicode hex="2198"/>
  <outline>
    <contour>
      <point x="390" y="226" type="curve"/>
      <point x="289" y="200"/>
      <point x="170" y="166"/>
      <point x="47" y="99" type="curve"/>
      <point x="230" y="109"/>
      <point x="392" y="89"/>
      <point x="569" y="47" type="curve"/>
      <point x="527" y="224"/>
      <point x="507" y="386"/>
      <point x="517" y="569" type="curve"/>
      <point x="450" y="446"/>
      <point x="416" y="327"/>
    </contour>
    <contour>
      <point x="454" y="88" type="curve"/>
      <point x="536" y="169" type="line"/>
      <point x="375" y="331"/>
      <point x="238" y="481"/>
      <point x="169" y="579" type="curve"/>
      <point x="45" y="455" type="line"/>
      <point x="143" y="386"/>
      <point x="293" y="249"/>
    </contour>
  </outline>
</glyph>
<glyph name="arrowSW" format="2">
  <advance width="636"/>
  <unicode hex="2199"/>
  <outline>
    <contour>
      <point x="246" y="226" type="curve"/>
      <point x="220" y="327"/>
      <point x="186" y="446"/>
      <point x="119" y="569" type="curve"/>
      <point x="129" y="386"/>
      <point x="109" y="224"/>
      <point x="67" y="47" type="curve"/>
      <point x="244" y="89"/>
      <point x="406" y="109"/>
      <point x="589" y="99" type="curve"/>
      <point x="466" y="166"/>
      <point x="347" y="200"/>
    </contour>
    <contour>
      <point x="182" y="88" type="line"/>
      <point x="343" y="249"/>
      <point x="493" y="386"/>
      <point x="591" y="455" type="curve"/>
      <point x="467" y="579" type="line"/>
      <point x="398" y="481"/>
      <point x="261" y="331"/>
      <point x="100" y="169" type="curve"/>
    </contour>
  </outline>
</glyph>
<glyph name="minus" format="2">
  <advance width="490"/>
  <unicode hex="2212"/>
  <outline>
    <contour>
      <point x="40.0" y="247.0" type="line"/>
      <point x="450.0" y="247.0" type="line"/>
      <point x="450.0" y="374.0" type="line"/>
      <point x="40.0" y="374.0" type="line"/>
    </contour>
  </outline>
</glyph>
<glyph name="approxequal" format="2">
  <advance width="490"/>
  <unicode hex="2248"/>
  <outline>
    <contour>
      <point x="148.0" y="331.0" type="line"/>
      <point x="148.0" y="371.0"/>
      <point x="160.0" y="384.0"/>
      <point x="181.0" y="384.0" type="curve" smooth="yes"/>
      <point x="222.0" y="384.0"/>
      <point x="252.0" y="327.0"/>
      <point x="330.0" y="327.0" type="curve" smooth="yes"/>
      <point x="403.0" y="327.0"/>
      <point x="460.0" y="388.0"/>
      <point x="450.0" y="527.0" type="curve"/>
      <point x="342" y="527" type="line"/>
      <point x="342.0" y="487"/>
      <point x="330" y="474"/>
      <point x="309" y="474.0" type="curve" smooth="yes"/>
      <point x="268" y="474.0"/>
      <point x="238" y="531"/>
      <point x="160" y="531.0" type="curve" smooth="yes"/>
      <point x="87" y="531"/>
      <point x="30.0" y="470"/>
      <point x="40" y="331" type="curve"/>
    </contour>
    <contour>
      <point x="148.0" y="90.0" type="line"/>
      <point x="148.0" y="130.0"/>
      <point x="160.0" y="143.0"/>
      <point x="181.0" y="143.0" type="curve" smooth="yes"/>
      <point x="222.0" y="143.0"/>
      <point x="252.0" y="86.0"/>
      <point x="330.0" y="86.0" type="curve" smooth="yes"/>
      <point x="403.0" y="86.0"/>
      <point x="460.0" y="147.0"/>
      <point x="450.0" y="286.0" type="curve"/>
      <point x="342" y="286" type="line"/>
      <point x="342.0" y="246"/>
      <point x="330" y="233"/>
      <point x="309" y="233.0" type="curve" smooth="yes"/>
      <point x="268" y="233.0"/>
      <point x="238" y="290"/>
      <point x="160" y="290.0" type="curve" smooth="yes"/>
      <point x="87" y="290"/>
      <point x="30.0" y="229"/>
      <point x="40" y="90" type="curve"/>
    </contour>
  </outline>
</glyph>
<glyph name="lessequal" format="2">
  <advance width="447"/>
  <unicode hex="2264"/>
  <outline>
    <contour>
      <point x="40.0" y="50.0" type="line"/>
      <point x="397.0" y="50.0" type="line"/>
      <point x="397.0" y="180.0" type="line"/>
      <point x="40.0" y="180.0" type="line"/>
    </contour>
    <contour>
      <point x="15.0" y="411.0" type="line"/>
      <point x="397.0" y="613.0" type="line"/>
      <point x="397.0" y="485.0" type="line"/>
      <point x="176.0" y="379.0" type="line"/>
      <point x="176.0" y="447.0" type="line"/>
      <point x="397.0" y="339.0" type="line"/>
      <point x="397.0" y="209.0" type="line"/>
    </contour>
  </outline>
</glyph>
<glyph name="greaterequal" format="2">
  <advance width="447"/>
  <unicode hex="2265"/>
  <outline>
    <contour>
      <point x="407" y="337" type="line"/>
      <point x="407" y="479" type="line"/>
      <point x="50" y="359" type="line"/>
      <point x="50" y="208" type="line"/>
    </contour>
    <contour>
      <point x="407" y="484" type="line"/>
      <point x="50" y="613" type="line"/>
      <point x="50" y="465" type="line"/>
      <point x="407" y="347" type="line"/>
    </contour>
    <contour>
      <point x="407" y="50" type="line"/>
      <point x="407" y="190" type="line"/>
      <point x="50" y="190" type="line"/>
      <point x="50" y="50" type="line"/>
    </contour>
  </outline>
</glyph>
<glyph name="bracketangleright" format="2">
  <advance width="401"/>
  <unicode hex="27E9"/>
  <outline>
    <contour>
      <point x="281" y="439" type="line"/>
      <point x="281" y="242" type="line"/>
      <point x="40" y="680" type="line"/>
      <point x="209" y="680" type="line"/>
      <point x="401" y="337" type="line"/>
      <point x="211" y="0" type="line"/>
      <point x="41" y="0" type="line"/>
    </contour>
  </outline>
</glyph>
<glyph name=".notdef" format="2">
  <advance width="500"/>
  <outline>
    <contour>
      <point x="50" y="-160" type="line" name="SCZNUIHE"/>
      <point x="450" y="-160" type="line" name="FEIWEYTZ"/>
      <point x="450" y="730" type="line" name="TUIICHUI"/>
      <point x="50" y="730" type="line" name="PMOESBQO"/>
    </contour>
    <contour>
      <point x="125" y="-85" type="line" name="MAJOETPW"/>
      <point x="125" y="655" type="line" name="GSMNQMLF"/>
      <point x="375" y="655" type="line" name="QMPVFZEB"/>
      <point x="375" y="-85" type="line" name="UESFPLUA"/>
    </contour>
  </outline>
</glyph>
<glyph name="caroncmb.alt" format="2">
  <anchor x="-125" y="517" name="right"/>
  <outline>
    <contour>
      <point x="-62" y="730" type="curve"/>
      <point x="95" y="730" type="line"/>
      <point x="102.99683349920276" y="642.0348315087696"/>
      <point x="55.18576069184758" y="545.9709137937801"/>
      <point x="-97" y="499" type="curve"/>
      <point x="-48.43431273744382" y="598.6433928317963"/>
      <point x="-42.57313680309912" y="657.9587156448259"/>
    </contour>
  </outline>
</glyph>
